<mxfile host="Electron" agent="Mozilla/5.0 (Macintosh; Intel Mac OS X 10_15_7) AppleWebKit/537.36 (KHTML, like Gecko) draw.io/24.7.5 Chrome/126.0.6478.183 Electron/31.3.0 Safari/537.36" version="24.7.5" pages="6">
  <diagram id="cypBmgj2DYRqx4Npll8_" name="Page-2">
    <mxGraphModel dx="1242" dy="779" grid="1" gridSize="10" guides="1" tooltips="1" connect="1" arrows="1" fold="1" page="1" pageScale="1" pageWidth="850" pageHeight="1100" math="0" shadow="0">
      <root>
        <mxCell id="0" />
        <mxCell id="1" parent="0" />
        <mxCell id="_t9Rp4VTCbnUSJHLkLZg-1" value="Server" style="rounded=0;whiteSpace=wrap;html=1;fontSize=14;fillColor=#d5e8d4;strokeColor=#82b366;" parent="1" vertex="1">
          <mxGeometry x="100" y="550" width="210" height="50" as="geometry" />
        </mxCell>
        <mxCell id="_t9Rp4VTCbnUSJHLkLZg-2" value="Host OS" style="rounded=0;whiteSpace=wrap;html=1;fontSize=14;fillColor=#d5e8d4;strokeColor=#82b366;" parent="1" vertex="1">
          <mxGeometry x="100" y="510" width="210" height="40" as="geometry" />
        </mxCell>
        <mxCell id="_t9Rp4VTCbnUSJHLkLZg-3" value="Hypervisor" style="rounded=0;whiteSpace=wrap;html=1;fontSize=14;fillColor=#d5e8d4;strokeColor=#82b366;" parent="1" vertex="1">
          <mxGeometry x="100" y="470" width="210" height="40" as="geometry" />
        </mxCell>
        <mxCell id="_t9Rp4VTCbnUSJHLkLZg-4" value="Guest OS" style="rounded=0;whiteSpace=wrap;html=1;fontSize=14;fillColor=#ffe6cc;strokeColor=#d79b00;" parent="1" vertex="1">
          <mxGeometry x="100" y="430" width="100" height="40" as="geometry" />
        </mxCell>
        <mxCell id="_t9Rp4VTCbnUSJHLkLZg-5" value="Guest OS" style="rounded=0;whiteSpace=wrap;html=1;fontSize=14;fillColor=#fff2cc;strokeColor=#d6b656;" parent="1" vertex="1">
          <mxGeometry x="210" y="430" width="100" height="40" as="geometry" />
        </mxCell>
        <mxCell id="_t9Rp4VTCbnUSJHLkLZg-6" value="Bins/Libs" style="rounded=0;whiteSpace=wrap;html=1;fontSize=14;fillColor=#ffe6cc;strokeColor=#d79b00;" parent="1" vertex="1">
          <mxGeometry x="100" y="390" width="100" height="40" as="geometry" />
        </mxCell>
        <mxCell id="_t9Rp4VTCbnUSJHLkLZg-7" value="Bins/Libs" style="rounded=0;whiteSpace=wrap;html=1;fontSize=14;fillColor=#fff2cc;strokeColor=#d6b656;" parent="1" vertex="1">
          <mxGeometry x="210" y="390" width="100" height="40" as="geometry" />
        </mxCell>
        <mxCell id="_t9Rp4VTCbnUSJHLkLZg-8" value="App A" style="rounded=0;whiteSpace=wrap;html=1;fontSize=14;fillColor=#ffe6cc;strokeColor=#d79b00;" parent="1" vertex="1">
          <mxGeometry x="100" y="350" width="100" height="40" as="geometry" />
        </mxCell>
        <mxCell id="_t9Rp4VTCbnUSJHLkLZg-9" value="App B" style="rounded=0;whiteSpace=wrap;html=1;fontSize=14;fillColor=#fff2cc;strokeColor=#d6b656;" parent="1" vertex="1">
          <mxGeometry x="210" y="350" width="100" height="40" as="geometry" />
        </mxCell>
        <mxCell id="_t9Rp4VTCbnUSJHLkLZg-10" value="Server" style="rounded=0;whiteSpace=wrap;html=1;fontSize=14;fillColor=#d5e8d4;strokeColor=#82b366;" parent="1" vertex="1">
          <mxGeometry x="390" y="550" width="210" height="50" as="geometry" />
        </mxCell>
        <mxCell id="_t9Rp4VTCbnUSJHLkLZg-11" value="Host OS" style="rounded=0;whiteSpace=wrap;html=1;fontSize=14;fillColor=#d5e8d4;strokeColor=#82b366;" parent="1" vertex="1">
          <mxGeometry x="390" y="510" width="210" height="40" as="geometry" />
        </mxCell>
        <mxCell id="_t9Rp4VTCbnUSJHLkLZg-12" value="Docker Engine" style="rounded=0;whiteSpace=wrap;html=1;fontSize=14;fillColor=#dae8fc;strokeColor=#6c8ebf;" parent="1" vertex="1">
          <mxGeometry x="390" y="470" width="210" height="40" as="geometry" />
        </mxCell>
        <mxCell id="_t9Rp4VTCbnUSJHLkLZg-15" value="Bins/Libs" style="rounded=0;whiteSpace=wrap;html=1;fontSize=14;fillColor=#ffe6cc;strokeColor=#d79b00;" parent="1" vertex="1">
          <mxGeometry x="390" y="430" width="100" height="40" as="geometry" />
        </mxCell>
        <mxCell id="_t9Rp4VTCbnUSJHLkLZg-16" value="Bins/Libs" style="rounded=0;whiteSpace=wrap;html=1;fontSize=14;fillColor=#fff2cc;strokeColor=#d6b656;" parent="1" vertex="1">
          <mxGeometry x="500" y="430" width="100" height="40" as="geometry" />
        </mxCell>
        <mxCell id="_t9Rp4VTCbnUSJHLkLZg-17" value="App A" style="rounded=0;whiteSpace=wrap;html=1;fontSize=14;fillColor=#ffe6cc;strokeColor=#d79b00;" parent="1" vertex="1">
          <mxGeometry x="390" y="390" width="100" height="40" as="geometry" />
        </mxCell>
        <mxCell id="_t9Rp4VTCbnUSJHLkLZg-18" value="App B" style="rounded=0;whiteSpace=wrap;html=1;fontSize=14;fillColor=#fff2cc;strokeColor=#d6b656;" parent="1" vertex="1">
          <mxGeometry x="500" y="390" width="100" height="40" as="geometry" />
        </mxCell>
        <mxCell id="_t9Rp4VTCbnUSJHLkLZg-19" value="&lt;b&gt;Virtual Machine&lt;/b&gt;" style="text;html=1;align=center;verticalAlign=middle;resizable=0;points=[];autosize=1;strokeColor=none;fillColor=none;fontSize=14;" parent="1" vertex="1">
          <mxGeometry x="145" y="610" width="120" height="20" as="geometry" />
        </mxCell>
        <mxCell id="_t9Rp4VTCbnUSJHLkLZg-20" value="&lt;b&gt;Docker&lt;/b&gt;" style="text;html=1;align=center;verticalAlign=middle;resizable=0;points=[];autosize=1;strokeColor=none;fillColor=none;fontSize=14;" parent="1" vertex="1">
          <mxGeometry x="480" y="610" width="60" height="20" as="geometry" />
        </mxCell>
      </root>
    </mxGraphModel>
  </diagram>
  <diagram id="S4rnOv-TBMgy_oM4-nEW" name="Page-1">
    <mxGraphModel dx="1242" dy="779" grid="1" gridSize="10" guides="1" tooltips="1" connect="1" arrows="1" fold="1" page="1" pageScale="1" pageWidth="850" pageHeight="1100" math="0" shadow="0">
      <root>
        <mxCell id="0" />
        <mxCell id="1" parent="0" />
        <mxCell id="3SN1m49ejYSKGgf7w5p6-1" value="Client: CLI or Remote API" style="rounded=0;whiteSpace=wrap;html=1;verticalAlign=top;align=left;fontStyle=1;fontSize=14;" parent="1" vertex="1">
          <mxGeometry x="80" y="90" width="190" height="350" as="geometry" />
        </mxCell>
        <mxCell id="3SN1m49ejYSKGgf7w5p6-2" value="docker build" style="rounded=0;whiteSpace=wrap;html=1;" parent="1" vertex="1">
          <mxGeometry x="115" y="140" width="120" height="60" as="geometry" />
        </mxCell>
        <mxCell id="3SN1m49ejYSKGgf7w5p6-3" value="docker pull" style="rounded=0;whiteSpace=wrap;html=1;" parent="1" vertex="1">
          <mxGeometry x="115" y="230" width="120" height="60" as="geometry" />
        </mxCell>
        <mxCell id="3SN1m49ejYSKGgf7w5p6-4" value="docker run" style="rounded=0;whiteSpace=wrap;html=1;" parent="1" vertex="1">
          <mxGeometry x="115" y="320" width="120" height="60" as="geometry" />
        </mxCell>
        <mxCell id="3SN1m49ejYSKGgf7w5p6-5" value="Docker Host" style="rounded=0;whiteSpace=wrap;html=1;verticalAlign=top;align=left;fontStyle=1;fontSize=14;" parent="1" vertex="1">
          <mxGeometry x="350" y="90" width="330" height="430" as="geometry" />
        </mxCell>
        <mxCell id="3SN1m49ejYSKGgf7w5p6-6" value="docker daemon" style="rounded=0;whiteSpace=wrap;html=1;" parent="1" vertex="1">
          <mxGeometry x="370" y="140" width="270" height="60" as="geometry" />
        </mxCell>
        <mxCell id="3SN1m49ejYSKGgf7w5p6-7" value="Containers" style="rounded=0;whiteSpace=wrap;html=1;verticalAlign=top;align=left;fontStyle=1" parent="1" vertex="1">
          <mxGeometry x="390" y="240" width="120" height="210" as="geometry" />
        </mxCell>
        <mxCell id="3SN1m49ejYSKGgf7w5p6-8" value="Registry" style="rounded=0;whiteSpace=wrap;html=1;verticalAlign=top;align=left;fontSize=14;fontStyle=1" parent="1" vertex="1">
          <mxGeometry x="730" y="100" width="120" height="60" as="geometry" />
        </mxCell>
        <mxCell id="3SN1m49ejYSKGgf7w5p6-11" value="Images" style="rounded=0;whiteSpace=wrap;html=1;verticalAlign=top;align=left;fontStyle=1" parent="1" vertex="1">
          <mxGeometry x="530" y="245" width="120" height="210" as="geometry" />
        </mxCell>
      </root>
    </mxGraphModel>
  </diagram>
  <diagram id="tDzChOYkS43jvbVa-F3n" name="Page-3">
    <mxGraphModel dx="1242" dy="779" grid="1" gridSize="10" guides="1" tooltips="1" connect="1" arrows="1" fold="1" page="1" pageScale="1" pageWidth="850" pageHeight="1100" math="0" shadow="0">
      <root>
        <mxCell id="0" />
        <mxCell id="1" parent="0" />
        <mxCell id="A3diCDe5apeCdrPt0GSY-1" value="浏览器" style="rounded=0;whiteSpace=wrap;html=1;shadow=0;glass=0;dashed=1;labelBackgroundColor=none;labelBorderColor=none;sketch=1;fontFamily=Helvetica;fontSize=12;fontColor=#000000;strokeColor=default;strokeWidth=1;fillColor=default;gradientColor=none;gradientDirection=east;" parent="1" vertex="1">
          <mxGeometry x="250" y="240" width="120" height="60" as="geometry" />
        </mxCell>
        <mxCell id="A3diCDe5apeCdrPt0GSY-2" value="" style="endArrow=classic;html=1;rounded=1;sketch=0;fontFamily=Helvetica;fontSize=12;fontColor=#000000;strokeColor=#7EA6E0;strokeWidth=2;shape=flexArrow;" parent="1" edge="1">
          <mxGeometry width="50" height="50" relative="1" as="geometry">
            <mxPoint x="309.5" y="150" as="sourcePoint" />
            <mxPoint x="309.5" y="240" as="targetPoint" />
          </mxGeometry>
        </mxCell>
        <mxCell id="A3diCDe5apeCdrPt0GSY-3" value="URL:&amp;nbsp;&lt;a href=&quot;https://www.kaola.com&quot; style=&quot;color: rgb(85, 85, 85); text-decoration-line: none; overflow-wrap: break-word; -webkit-tap-highlight-color: rgba(0, 0, 0, 0); border-bottom: 1px solid rgb(85, 85, 85); font-family: &amp;quot;PingFang SC&amp;quot;, &amp;quot;Lantinghei SC&amp;quot;, &amp;quot;Microsoft Yahei&amp;quot;, &amp;quot;Hiragino Sans GB&amp;quot;, &amp;quot;Microsoft Sans Serif&amp;quot;, &amp;quot;WenQuanYi Micro Hei&amp;quot;, Helvetica, sans-serif; font-size: 16px; text-align: start; background-color: rgb(255, 255, 255);&quot;&gt;https://www.kaola.com&lt;/a&gt;&lt;span style=&quot;color: rgb(53, 53, 53); font-family: &amp;quot;PingFang SC&amp;quot;, &amp;quot;Lantinghei SC&amp;quot;, &amp;quot;Microsoft Yahei&amp;quot;, &amp;quot;Hiragino Sans GB&amp;quot;, &amp;quot;Microsoft Sans Serif&amp;quot;, &amp;quot;WenQuanYi Micro Hei&amp;quot;, Helvetica, sans-serif; font-size: 16px; text-align: start; background-color: rgb(255, 255, 255);&quot;&gt;&amp;nbsp;&lt;/span&gt;" style="text;html=1;align=center;verticalAlign=middle;resizable=0;points=[];autosize=1;strokeColor=none;fillColor=none;fontSize=12;fontFamily=Helvetica;fontColor=#000000;" parent="1" vertex="1">
          <mxGeometry x="215" y="180" width="230" height="20" as="geometry" />
        </mxCell>
        <mxCell id="A3diCDe5apeCdrPt0GSY-4" value="HTTP+DNS" style="text;html=1;align=center;verticalAlign=middle;resizable=0;points=[];autosize=1;strokeColor=none;fillColor=none;fontSize=12;fontFamily=Helvetica;fontColor=#000000;" parent="1" vertex="1">
          <mxGeometry x="600" y="460" width="80" height="20" as="geometry" />
        </mxCell>
        <mxCell id="A3diCDe5apeCdrPt0GSY-5" value="DNS服务器" style="rounded=0;whiteSpace=wrap;html=1;fontSize=14;" parent="1" vertex="1">
          <mxGeometry x="250" y="350" width="120" height="60" as="geometry" />
        </mxCell>
      </root>
    </mxGraphModel>
  </diagram>
  <diagram id="yqrTuYmRSpjzX0iypxJj" name="Page-4">
    <mxGraphModel dx="1061" dy="1766" grid="1" gridSize="10" guides="1" tooltips="1" connect="1" arrows="1" fold="1" page="1" pageScale="1" pageWidth="850" pageHeight="1100" math="0" shadow="0">
      <root>
        <mxCell id="0" />
        <mxCell id="1" parent="0" />
        <mxCell id="yeecXxTorHFTwbyr2bbs-45" value="OCI Runtime" style="rounded=0;whiteSpace=wrap;html=1;verticalAlign=top;align=left;" vertex="1" parent="1">
          <mxGeometry x="100" y="395" width="440" height="60" as="geometry" />
        </mxCell>
        <mxCell id="yeecXxTorHFTwbyr2bbs-43" value="containerd-shim" style="rounded=0;whiteSpace=wrap;html=1;verticalAlign=top;align=left;" vertex="1" parent="1">
          <mxGeometry x="85" y="295" width="460" height="80" as="geometry" />
        </mxCell>
        <mxCell id="yeecXxTorHFTwbyr2bbs-39" value="Container" style="rounded=0;whiteSpace=wrap;html=1;" vertex="1" parent="1">
          <mxGeometry x="270" y="480" width="115" height="40" as="geometry" />
        </mxCell>
        <mxCell id="yeecXxTorHFTwbyr2bbs-38" value="Container" style="rounded=0;whiteSpace=wrap;html=1;" vertex="1" parent="1">
          <mxGeometry x="410" y="480" width="105" height="40" as="geometry" />
        </mxCell>
        <mxCell id="VXsyp3nq2i0uvCDkkW_0-1" value="libcontainer" style="rounded=0;whiteSpace=wrap;html=1;" vertex="1" parent="1">
          <mxGeometry x="610" y="440" width="120" height="40" as="geometry" />
        </mxCell>
        <mxCell id="tuQpgn602ZahKxp15Fe7-1" value="Linux Kernel" style="rounded=0;whiteSpace=wrap;html=1;verticalAlign=top;" vertex="1" parent="1">
          <mxGeometry x="690" y="340" width="500" height="70" as="geometry" />
        </mxCell>
        <mxCell id="tuQpgn602ZahKxp15Fe7-2" value="namespace" style="rounded=0;whiteSpace=wrap;html=1;" vertex="1" parent="1">
          <mxGeometry x="720" y="370" width="90" height="30" as="geometry" />
        </mxCell>
        <mxCell id="tuQpgn602ZahKxp15Fe7-3" value="cgroup" style="rounded=0;whiteSpace=wrap;html=1;" vertex="1" parent="1">
          <mxGeometry x="830" y="370" width="100" height="30" as="geometry" />
        </mxCell>
        <mxCell id="tuQpgn602ZahKxp15Fe7-4" value="unionFS, Device mapper" style="rounded=0;whiteSpace=wrap;html=1;" vertex="1" parent="1">
          <mxGeometry x="980" y="370" width="180" height="30" as="geometry" />
        </mxCell>
        <mxCell id="tuQpgn602ZahKxp15Fe7-5" value="libnetwork" style="rounded=0;whiteSpace=wrap;html=1;" vertex="1" parent="1">
          <mxGeometry x="764" y="440" width="90" height="40" as="geometry" />
        </mxCell>
        <mxCell id="tuQpgn602ZahKxp15Fe7-6" value="Docker daemon" style="rounded=0;whiteSpace=wrap;html=1;verticalAlign=top;align=left;fillColor=#dae8fc;strokeColor=#6c8ebf;" vertex="1" parent="1">
          <mxGeometry x="150" y="-210" width="355" height="190" as="geometry" />
        </mxCell>
        <mxCell id="yeecXxTorHFTwbyr2bbs-1" value="Image management" style="rounded=0;whiteSpace=wrap;html=1;verticalAlign=top;" vertex="1" parent="1">
          <mxGeometry x="690" y="140" width="120" height="170" as="geometry" />
        </mxCell>
        <mxCell id="yeecXxTorHFTwbyr2bbs-2" value="Dockder registry" style="rounded=0;whiteSpace=wrap;html=1;" vertex="1" parent="1">
          <mxGeometry x="910" y="120" width="120" height="60" as="geometry" />
        </mxCell>
        <mxCell id="yeecXxTorHFTwbyr2bbs-3" value="distribution" style="rounded=0;whiteSpace=wrap;html=1;" vertex="1" parent="1">
          <mxGeometry x="710" y="190" width="80" height="30" as="geometry" />
        </mxCell>
        <mxCell id="yeecXxTorHFTwbyr2bbs-4" value="Docker Client" style="rounded=0;whiteSpace=wrap;html=1;" vertex="1" parent="1">
          <mxGeometry x="335" y="-340" width="120" height="60" as="geometry" />
        </mxCell>
        <mxCell id="yeecXxTorHFTwbyr2bbs-8" style="edgeStyle=orthogonalEdgeStyle;rounded=0;orthogonalLoop=1;jettySize=auto;html=1;exitX=0.75;exitY=0;exitDx=0;exitDy=0;entryX=0.75;entryY=1;entryDx=0;entryDy=0;" edge="1" parent="1" source="yeecXxTorHFTwbyr2bbs-5" target="yeecXxTorHFTwbyr2bbs-4">
          <mxGeometry relative="1" as="geometry" />
        </mxCell>
        <mxCell id="yeecXxTorHFTwbyr2bbs-5" value="Docker server" style="rounded=0;whiteSpace=wrap;html=1;verticalAlign=top;" vertex="1" parent="1">
          <mxGeometry x="260" y="-190" width="215" height="140" as="geometry" />
        </mxCell>
        <mxCell id="yeecXxTorHFTwbyr2bbs-6" value="http server" style="rounded=0;whiteSpace=wrap;html=1;" vertex="1" parent="1">
          <mxGeometry x="325" y="-150" width="80" height="20" as="geometry" />
        </mxCell>
        <mxCell id="yeecXxTorHFTwbyr2bbs-7" style="edgeStyle=orthogonalEdgeStyle;rounded=0;orthogonalLoop=1;jettySize=auto;html=1;exitX=0.25;exitY=1;exitDx=0;exitDy=0;entryX=0.37;entryY=0.01;entryDx=0;entryDy=0;entryPerimeter=0;" edge="1" parent="1" source="yeecXxTorHFTwbyr2bbs-4" target="yeecXxTorHFTwbyr2bbs-5">
          <mxGeometry relative="1" as="geometry" />
        </mxCell>
        <mxCell id="yeecXxTorHFTwbyr2bbs-9" value="router" style="rounded=0;whiteSpace=wrap;html=1;" vertex="1" parent="1">
          <mxGeometry x="325" y="-120" width="100" height="30" as="geometry" />
        </mxCell>
        <mxCell id="yeecXxTorHFTwbyr2bbs-10" value="handler" style="rounded=0;whiteSpace=wrap;html=1;" vertex="1" parent="1">
          <mxGeometry x="325" y="-80" width="100" height="30" as="geometry" />
        </mxCell>
        <mxCell id="yeecXxTorHFTwbyr2bbs-11" value="Docker Engine" style="rounded=0;whiteSpace=wrap;html=1;verticalAlign=top;align=left;" vertex="1" parent="1">
          <mxGeometry x="480" y="-10" width="310" height="80" as="geometry" />
        </mxCell>
        <mxCell id="yeecXxTorHFTwbyr2bbs-12" value="job" style="rounded=0;whiteSpace=wrap;html=1;" vertex="1" parent="1">
          <mxGeometry x="547.5" y="15" width="65" height="30" as="geometry" />
        </mxCell>
        <mxCell id="yeecXxTorHFTwbyr2bbs-13" value="job" style="rounded=0;whiteSpace=wrap;html=1;" vertex="1" parent="1">
          <mxGeometry x="645" y="10" width="60" height="40" as="geometry" />
        </mxCell>
        <mxCell id="yeecXxTorHFTwbyr2bbs-14" value="&lt;b&gt;Infrastructure&lt;/b&gt;" style="rounded=0;whiteSpace=wrap;html=1;align=left;dashed=1;" vertex="1" parent="1">
          <mxGeometry x="70" y="625" width="850" height="70" as="geometry" />
        </mxCell>
        <mxCell id="yeecXxTorHFTwbyr2bbs-28" value="" style="shape=image;verticalLabelPosition=bottom;labelBackgroundColor=default;verticalAlign=top;aspect=fixed;imageAspect=0;image=data:image/svg+xml,PHN2ZyB4bWxuczp4bGluaz0iaHR0cDovL3d3dy53My5vcmcvMTk5OS94bGluayIgeG1sbnM9Imh0dHA6Ly93d3cudzMub3JnLzIwMDAvc3ZnIiBoZWlnaHQ9IjIwMCIgd2lkdGg9IjMwMy4xMjUiIHZlcnNpb249IjEuMSIgdmlld0JveD0iMCAwIDE1NTIgMTAyNCIgY2xhc3M9Imljb24iPjxwYXRoIGZpbGw9IiMwMDcxQzUiIGQ9Ik00NTcuNTEyNjQ2IDQzNC4zMzEzNjN2MjUwLjgzNTcwNGgtNzkuNzc5MDk5di0zMTUuMjg4NjUxbDE2NC44MDA4NzcgMC4xNTE2NTRjNjkuODgwNjQzIDAgOTMuNzU1NTMxIDQ5LjQ0OTgxNyA5My43NTU1MzIgOTQuMTkyMjk1djIyMC45NDc3MzVoLTc5LjU4NjQ5OXYtMjIwLjUwNDkwNWMwLTE4LjgyOTM2LTkuNjU3MzI2LTMwLjMzMDc5OS0zMy4xOTI1MDktMzAuMzMwNzk5eiBtNTQyLjc4MzI4OS0zLjczNjc1NGMtMjcuMzIwNDY3IDAtNDguMzc3NjI0IDEzLjk3NjQzMi01Ny4yNjMwMzEgMzIuOTk4MzkyYTgyLjQyNTQ2MiA4Mi40MjU0NjIgMCAwIDAtNy42MTkwOTcgMzQuMzA4NjgzaDEyMi44MjMwNTJjLTEuNTA0NDA4LTM0LjMwODY4My0xNy4wMzM3NzYtNjcuMzA4NTkyLTU3Ljg5MzkxMS02Ny4zMDg1OTJ6IG0tNjQuODgyMTI4IDEyMS42MDk4MmMwIDQwLjcxNDU0NyAyNS40MjkzNDEgNzAuODUxMjI5IDcwLjgwMjcgNzAuODUxMjI5IDM1LjE4MzcyNiAwIDUyLjc0OTgwOC05LjcwNTg1NiA3My4xNzkxMTctMzAuMTM1MTY1bDQ5LjMwNDIzIDQ3LjE2NDM5MmMtMzEuNDkzOTg1IDMxLjEwNTc1LTY0Ljc4NTA2OSA1MC4wMzIxNjktMTIzLjA2NTY5OCA1MC4wMzIxNjgtNzYuMzMzNTIxIDAtMTQ5LjQ2NTYyNi00MS41ODgwNzQtMTQ5LjQ2NTYyNi0xNjMuMDUzODIzIDAtMTAzLjg0OTYyMSA2My43MTc0MjUtMTYyLjUyMDAwMSAxNDcuNTcyOTg0LTE2Mi41MjAwMDEgODUuMDY4NzkxIDAgMTM0LjI3NTk2MiA2OC43NjQ0NyAxMzQuMjc1OTYxIDE1OC44MzE3NzZ2MjguNjc5Mjg2aC0yMDIuNjA5NzM0eiBtLTE0Ni43NDc5ODYgMTMyLjQ4MDM3OGMtNjQuOTc5MTg2IDAtOTIuNjM5MzU4LTQ1LjIyNzc3LTkyLjYzOTM1OC05MC4wMTg3NzdWMjg0LjA4OTI2OWg3OS43MzA1N3Y4NS44NDUyNTloNjAuMDI5MnY2NC40NDUzNjRoLTYwLjEyNjI1OHYxNTUuMjkzNjg5YzAgMTguMzkyNTk2IDguNzM1MjcgMjguNDg1MTY5IDI3Ljc1MjY4MSAyOC40ODUxNjloMzIuMzY3NTExdjY2LjQzNTA2NXogbS00ODEuOTc3NjItMzU4LjMyODA1NGgtODAuMzYxNDUxdi03Ni4zMzM1Mmg4MC4zNjE0NTF6IG0wLjE5NDExNyAzNjIuMDE2Mjc5Yy02MC4xNzQ3ODgtNS42Nzc5MjUtODAuNjA0MDk3LTQyLjEyMTg5Ni04MC42MDQwOTctODQuNDM3OTFWMzcwLjAzMTU4N2g4MC41MDcwMzlWNjg4LjYxNTY3OXogbTk1Ny45Mzc2MS02Ljc0NTU2OWMtNjAuMTI2MjU4LTUuODIzNTEzLTgwLjQwOTk4LTQyLjE3MDQyNi04MC40MDk5OC04NC4yOTIzMjJWMjM5LjIwMTIwNGg4MC40MDk5OHY0NDIuNTcxODQ3eiBtMjgxLjI2NjU5NC0zOTAuNjk1NTY2Yy03Mi43OTM5MTYtMzU1LjQxNzgxNC03NjMuMDAxNTY4LTM3Ny45MzM4ODItMTIwNy42MTMxNjEtMTA3LjE5ODE0MXYyOS44OTI1MTlDNzgyLjY0ODE5MS0xNC42NDc4NjUgMTQxMi44Mjk2NzUtMTMuMzM3NTc0IDE0NzAuMTg5NzY1IDMxMy45MzMyNThjMTkuMTY5MDY1IDEwOC4zNjI4NDQtNDEuNzgyMTkyIDIyMS4xNDAzMzYtMTUwLjY3ODg1NyAyODYuMTE5NTIydjg0LjgyNjE0NGMxMzEuMDI5MDUtNDcuOTkzOTM5IDI2NS41OTE2MzctMjAzLjYyMjc4MyAyMjYuNTcxMDY1LTM5My45MDAwMTR6TTczNy41MTc0NzkgOTEyLjc2NjM0NkM0MzAuNjc3NDcyIDk0MS4xMDU5MjggMTEwLjc4MTU3MyA4OTYuNTAyOTcyIDY2LjA4NzYyNSA2NTYuNzM4MDA5Yy0yMS43ODk2NDYtMTE4LjIxNDI4NyAzMi4xNzMzOTUtMjQzLjYwOTM5MSAxMDMuNDEyODU4LTMyMS4zOTg3OXYtNDEuNTkyNjI0QzQwLjk1MDk3NiA0MDYuNTI0MDg3LTI4LjgzMjYwOSA1NDkuMzQxMjAxIDExLjM0ODExNyA3MTguMDI0NDIxYzUxLjI0NTQwMSAyMTYuNDMyOTk2IDMyNS43Njc5NDIgMzM4Ljk2NjM4OSA3NDQuNjUxNDM0IDI5OC4yMDMzMTIgMTY1LjgxODQ3Ni0xNi4xMTE3MiAzODIuNzg2ODEtNjkuNDkyNDA5IDUzMy42MTEyNTUtMTUyLjMyODg1M3YtMTE3LjQ4NjM0OGMtMTM2Ljg5NjU0MyA4MS41NzQ2ODMtMzYzLjQyMzYyOCAxNDguOTI0MjIxLTU1Mi4wOTkzOTMgMTY2LjM1MzgxNHogbTYyMC4yODE1MTItNjQ5Ljg4Mjg1NWMwLTMuODgyMzQyLTIuMzc3OTM1LTUuMDk1NTc0LTcuNTIyMDM4LTUuMDk1NTc0aC01LjAwNDU4MnYxMS4wMTkxNzlsNS4wMDQ1ODIgMC4xNTE2NTRjNS4wOTU1NzQgMCA3LjUyMjAzOC0xLjYwMTQ2NiA3LjUyMjAzOC01LjQzNTI3OXogbTcuNzY0Njg1IDI3LjM2ODk5NmgtNS44NzIwNDNhMS4zNjQ4ODYgMS4zNjQ4ODYgMCAwIDEtMS4zNjQ4ODYtMC43NzY0NjhsLTguMTA0Mzg5LTEzLjc4MjMxNWExLjY2ODE5NCAxLjY2ODE5NCAwIDAgMC0xLjIxMzIzMi0wLjYzMDg4MWgtMy42Mzk2OTZ2MTMuNzMzNzg2YTEuNTYyMDM2IDEuNTYyMDM2IDAgMCAxLTEuNTA0NDA4IDEuNjAxNDY2aC01LjI4OTY5MWMtMC43Mjc5MzkgMC0xLjM2NDg4Ni0wLjkyMjA1Ni0xLjM2NDg4Ni0xLjYwMTQ2NnYtMzQuNTA0MzE2YzAtMS44OTI2NDIgMC43NzY0NjgtMi45MTE3NTcgMi40NzQ5OTMtMy4xMDU4NzRhOTQuOTg4NDc4IDk0Ljk4ODQ3OCAwIDAgMSA5Ljg1NzUxLTAuMzg4MjM0YzkuODU3NTEgMCAxNS45MjM2NjkgMi45NjAyODYgMTUuOTIzNjY5IDEyLjE4MDg0OHYwLjYzMDg4MWMwIDUuODIzNTEzLTIuOTYwMjg2IDguNzM1MjctNy4zNzY0NSAxMC4yMzk2NzhsOC4zOTU1NjUgMTQuMTcwNTQ5YzAgMC4zODgyMzQgMC4zMzk3MDUgMC43NzY0NjggMC4zMzk3MDUgMS4xNjQ3MDIgMC4xNTE2NTQgMC40MzY3NjMtMC4yNDI2NDYgMS4xMTYxNzMtMS4yMTMyMzIgMS4xMTYxNzR2MC4xNTE2NTR6IG0tMTQuMTIyMDItNDUuOTA3MThhMjYuNDcyNzIxIDI2LjQ3MjcyMSAwIDEgMCAyNi42NDEwNTcgMjYuNjkxMTAzIDI2Ljg3NDYwNCAyNi44NzQ2MDQgMCAwIDAtMjYuNjQxMDU3LTI2LjY0NTYwN3ogbTAgNTguNzE4OTFhMzIuMDI5MzIzIDMyLjAyOTMyMyAwIDAgMS0wLjA0ODUzLTY0LjA1NzEzaDAuMDQ4NTNhMzIuMDI5MzIzIDMyLjAyOTMyMyAwIDAgMSAwIDY0LjA1NzEzeiIvPjwvc3ZnPg==;" vertex="1" parent="1">
          <mxGeometry x="356.97" y="643.75" width="53.03" height="35" as="geometry" />
        </mxCell>
        <mxCell id="yeecXxTorHFTwbyr2bbs-29" value="" style="shape=image;verticalLabelPosition=bottom;labelBackgroundColor=default;verticalAlign=top;aspect=fixed;imageAspect=0;image=data:image/png,iVBORw0KGgoAAAANSUhEUgAAAgAAAADvCAYAAACE9WyEAAAACXBIWXMAAA7EAAAOxAGVKw4bAAAbaUlEQVR4nO3dfZRdVZnn8e8+VQkhw2QCIksZhqazkMUwDkPTNCIDkXrhRQbaGXRQQQXtGREhqQSlmZZRi3ZhD4JJqgJiwJalrbamfUEBhU7dKoSIb0ERmYjocqUZhmaYGGLMJJVQdfb8UdC8JaEqde/e59b5ftbKcklS9/nVrTrnPHefffYGSZIkSZIkSZIkSZIkSZIkSZIkSZIkSZIkSZIkSZIkSZIkSZIkSZIkSZIkSZIkSZIkSZIkSZIkSZIkSZIkSZIkSZIkSZIkSZIkSZIkSZIkSZIkSZIkSZIkSZIkSZIkSZIkSZIkSZIkSZIkSZIkSZIkSZIkSZIkSZIkSZIkSZIkSZIkSZIkSZIkSZIkSZIkSZIkSZIkSZIkSZIkSZIkSZIkSZIkSZIkSZIkSZIkSZIkSaqckDuApumGkf0ods5ltGM/OgKMR5jFZkLHTi7p2po7nipq1Zp57ORQyo7ZhPIAYjGbGOdC2ELBKJGtMLaFgm0sOu3x3HFnhNWrCza+eh7j2+cyVsyhI8Cssa08Pb6ZxWfuzB2vpW4Y2Y/Q2cmOHQf803kKJs5Vl/ZuyhuuvmwAqqy/v2D+wsMJHAnxCGJ4DcTDKcIRxDgPmPcyr7CFwGPE8CjEDcD9hPAjNoX19HeNtf4bUCUsHzmMojwF4ushHAkcAbxqCq+wE9hAYD3En0Kxju2z7+GKk2wwd+f6oSMYDycSw+sJLIC4ADgU6NzNV4wCm4CHIDwA/IxQPsDi3vWpIk/bqnWd7Pj9cVCeQIyvIYYFBA4DFgCz9/CVY8CTwK8JPEKMPyd0/Ai2/2TGN0aZ2QBUyerVBf/nlcdSji8khDcQWQjMb0GlUQjrCPE2ynArS7ofaUEN5TR4z4EwdiExng8c04IKY8CPgNsoiy+ztGtDC2q0j/6RTvYf74VwPpHTCBzUpFd+FLiVEL7Gqzau5dxzyya9bnOsGD6eUP4nCCcBxwFzmvjqo8BaiN+h7Ph67X/HWsAGILdV6zrZ8bsziJwPnAXslyHFeuBWiuJvWNT18LRe6bqRA5kVD21OrD0IjLG4+8GW19md5WuOpOiY2/I6xdgTUxqCv75xKON8GHgHzT0Z71nkPkK4gTnzVnPRcc0dXRpccwyxo2jqa+7K+M4NXHbG1IajJ0ZXlgJvg6Zd9Hct8iQh3kSYPcDihRtbWmtPlg0fRRHfTuA8Jj7dp3IfkVvYd9uXuOjsbQnrzlg2ALkMrDkJivOBc4EDcsf5J5FhQhigr/tbe/X1K4beQwh/3eRUu7KRvp5XJqiza4ON+4kcm6DSX9LX89GX/VerbpvLjrkfI3Ipex5ubbXHiHE55dxPcdmJo015xYHGdpI0M/Ht9PV+eVL/dLCxgBivhPAudj+s3yrbgM/SwbVc2vNokor9I53MHz+HED4AHJ+k5u5tgnjTxPfv/IHpaH1Xref0j3QyMHweA42fQXEv8D6qdPEHCHRD/CYDjZ8xOHxO7jiVFSt07AwOncSOuT8jchl5L/4AhxDCJ+kc/RUDjQtZvbo671MzXLN2PwaGbiDySwjvIf3FH2AucCnj/IqBxlX0r27dz7y/v2Bg+Dz2L39JCF8h/8Uf4AAI/43x8A8MNK5i1W2tH4mboWbWwVlVy+6bw2Djfexf/hLiF4Gjc0eahKOJ8WsMNL7L4JpW3EPWdK1eXTAwfA0xfJfI4bnjvECMhwBXsz7LBbI1Vgz1MmfH/4TwfvJc+F9sNvAR9n/FTxlonNj0Vx8cOYH9T77/mXNWyqH+ydoP+Aijc3/BwPCf5g7TjqrwSzyzDTYuJG7/K+KUZl1XyUJicT8rhpbxLzo+zLu7mjOsq+lZducB/OOsr0DszR1ltwID9J/b/rO4l903h87tK4n8l9xRduMo4F4GGst4qviLaT/hc8PIfoyV1xLL99IeHxIPfWbU8guUxSKWdm3OHahdtMMPtz0tHzmGFY3vEbmFqT1yVUUFIXyQLeVPWT7iaAAAMV/pwaGj6Jj1Y6C6F3/YSufsm3KHmLYb7zqIjm0jFb74P6sAPsj88i6uH9r724rLG8cyVt7PxO3Jdrs+vIOivJ8VQ+0wwloJ7fYDrr5Va+Yx0FhJUd5PoPnDcnkdSVF+n4Ghd+UOUluDjeOJ4V6qOST7nBg/y/tPbu9PYoNDR7Fz1g8hnJA7yqQFuhkP9zI4csiUv3agcSEF32dinYh2tYAQvu/8pcmxAWimFcPHM1r8DLiUmfvezoHwOVY0ltPfP1O/x0kI6b/3geFuIg2qNnH0pUo6xpfnDjEty9ecQgzfg3hY7ih74Shi+T0G1kzucdz+/oIVQ9cCt5B/EmkzzCXGv2Ng+L25g1RdjU/gTbZieAkh3gscljtKEoEl7H/yF1s6A1nPGWycBvE75FknYmoCX2fR6Rtyx9hrg0MnURR30JpFuFI5FIoGK4b2vDbB6tUF+y+8hRA+mChXKgXEVaxoXJo7SJXZAEzXsjsPYLDxTUJczszonqfibcx/xTdtAlpscOQEIt+gXX6/ynBt7gh7bXnjWGL4DhOP2rW7wwnhNm4Z2fUaCqtXFzz+ii9CnLm39AIrGWxcmDtGVdkATMfKuw6jc9YPidT3EZTAGcx/xd/SP+ITJS0RX0ss76BtLkhhLUu6f5Q7xd4Jh1BwG+0wyjJ5x/P78VW7/Jt/fMUNBN6WOE96kZsZGDold4wqsgHYWwMjr6Xs/F7lnr/OIXAO88ubc8eYmcI5VP+e/3PK8pO5I0zD1cDBuUM0XQzvYqDxjhf8txVDH2Jipn8ddEL4GstHDssdpGpsAPbG8qEToPwuM/FksbcCFzI4PNPuI+6Jx85L/Zrfrd27JaSroT1useydG7m+MTEpcLBxFiFcnTlPagdQlF90pPKFPIlN1eBQL0Voh5nY6cV4DSG8MXcMZRL4JP391dqtTs/aj3Fu4PrGoUQ+lztMJidywPiHcoeoEhuAqVg5chwxfIO2uR+bXAG8JXcIZbGRfbZ9PncI7dFZlOF71PnDSwxXsmK4ndc5aCobgMlaPrSAsryDmTVBSGqS+Gm3aG0DE3s01NlsAjfkDlEVNgCTcf3QARThO7R6v2+1j+Cx8zw76ezwpKo2EXtZ0ViYO0UVeBJ7ObeMzKEMd9Dey2Oq2SLe637O57mk64ncIaRJC+HDuSNUgQ3Ay9lSXkukfdYCVxqOADxnYhEsqY3EXlYOz7S9WqbMk9ierGycwcS6/pJ27dss7l2fO4Q0ZTFenjtCbjYAuzN4z4GU3JI7hioq427A1RLbd9lf1VvkLG4Yafet2qfFRRF2Jz79OaCdfjk2A48R4yih2DxxhQoQy/mEMIeJTYp8gkHN9AB9vXfnDlFBJRPH41YmHrmr43G3jYn3oJOJ96CK15pOnh4/D1iWO0guVfyh5Dc4/B5iPDN3jD3YBvFu4C7K+CBzyvVcfPqTL/tVK4YOIsQjiB3HQTyZwEn4ZEMdlcCWZ/6MAfOYuEjtetOY3Ql++n/GoxC+CvFeKH9C36mPvuBvB789G/Y9iDIeT4hdwGnMrEnFY8AwcBtlXMfc7Q++5JHQVWvmMdpxOCEuJMYuCL1UYT2VEN5KjRuAkDtA5Vyzdj/m7PgV1fv0PwbcSgw3U4zezeIzdzblVVcOn8h4+VYC50Ko2ve8Jxvp63lltuoDjV8AR2arPzlbId4DNIg8SIiPMP7PnuSyE0d3+a8H1hxKCEcQOYoQeoh0s7tPryE8xj7z/pCLjhtrXfxnczW2M9XmJIn4bQJ/xeLetVP+0sHGaUQ+wEQz0K42Ast5uriJD3ZtnNJXXjdyILPL91GyiJD1Q0hJZ/Ev6/oUiw3Ai61oXEPgz3PHeJ6txLCM2HkjSxe27pd01bpOdmw+l8jlEI5pWZ3msQHYrbCWWK6inPvV3V7sJ2PVbXPZvu85hHARcNKL/vZy+nqum1bMyapeA/ATYryIJb3rpv1KK4bPIcRVwIHTj5XMGPAJdo5dzeWnT2/xp0/dO5+nd94AnNeUZHvnv9LX85mM9bOxAXi+5UMLKMIvqMamIGMQbmL201dNani/mVYMnUUIn6Taw5Q2AC/1EAWXs6jnzqa/8kDjRAhXQewFtjCn/FdcdOqWptfZde2qNAAlcCWv/u0nOPfc5q0DccPIqxgr7wKObtprtkpgPbF4K31dDzX1dVcMvYcQbibPxPTV9PW8NUPd7HwK4PkKrqUaF/+HKXkdfd2XJL/4AyzpvZ2nfvtvIV7BxGQeVVsJ4RM89ds/bsnFH6Cv5z76uk+F8CaIVyW7+FfHZmI8nb6e/9HUiz/AJV1PMP50F/CTpr5uswVuZfs+r2v6xR9gSe9nCZwPWRbYqu16AI4APGt541gK7s8dA/g04/sundbQbTMtGz6Kzvh3RI7KHeVFHAGYsI2CN7fswl8F+UcANhHKHhaf+kBLqyxrHEzBTzPfE9+N8CVevfGdTW9+Xmxg+L9D/FhLa+xS+QcvmbxZA44APKtgaeYEJYGL6eu5uDIXf4DLutezz7Y/Ab6QO0rFVOHY2UQoemb0xT+/bZSc2vKLP8BlPY/TwQUtrzNl8etJLv4AT93zceDultd5iVDLUYAqnMTyW9Y4GDg3Y4JtBN7E4p5PZ8ywexedvY2+nncSY5pJX5qMUWJ4I4u7fpA7yMwW3s3SnnRD84t67iRwa7J6L+8hdo6nufgD9PeXUCxiYqJhSv8ucb1KsAEA6IiLyHfvf4yCN7O45/ZM9SdvSe/lz8wLUHbhApZ0/yh3ihkt8Bn6ulenLxyvTF9zl3ZSFP952jP9p6qv6yEIX0pak1CF23nJ2QCsum0uhPdmql4S4gVtNYTb1/sJRwIyi+GmPBemWtnI2NN5mt3Fvesh5D8nhHAdi7oezlObTyauaANQS6Nzz2Niqcr0Ah9lcW/iTrcJNq+9AvAClMcTzAofyB1ixovxCi47Y1O2+oGbs9We8Cj7/L+rs1Vf3P0gkHKE63BWravdyrg2AJDr+c+/Z9O9H89Ue3r6+0vG970AqPMucJmOnfBRLunamqd2bTzOvvM/nzXBpo23M7HSXiZx4CXL+aYWkm7G1smO3x2asF4l1LsBuG7kQOCU9IXjE8wee+fEhJc2ddmJo5TF+UBzliTWywus59Uba7liWVrhxiRLHO9J/7k7gVy3AbYxa5/PZqr9nPFZaSdDxsot/95y9W4AOsv/SJYNkYq+LAv8NNvSrgcIfDh3jNoo+Wiy2dj1VdIZqtFkRX6Yp3D4Mu8/eXOe2s8zsfT5Y8nqhbbaC6Up6t0ATOwEldrQjJrAtalYRh1vBaRfQmsTxY5vJa9aP/dVZmOYIuk98OcEvpal7q7ElO9BrOACTK1V3wbgupEDIZ6SuOoYHfGSxDVbq79rDMJf5I4x40U+37QdILV7gdtyR3jOjgdIf4ttlLE5w4lr7l7gx8lqRV6drFZF1LcB6BzvJvnwf/gSl/Y+krZmAn3d3wLuyR1jRitCyglR9VXG/I/fPWui4duQuOpwpVYihXSPIYZMT4NlVN8GIISTE1csieR7rKbVQrgmd4SkYspjJz7xzGNRaq2tHLyp+RvdTEcIj6etFzPNO9iNUKS7HRMrseNkUvVtANLvAPVVlnTPvE//z9p0z53Ab3LHmJFiuDt3hFqIPFi5SZZlTDsfoazYjoRxLGUDZANQC9feNZfUe2/HmHthj9bq7y+JYWXuGDNSEUdyR6iFULGLH0BB2hGAjrJa78FTT6VsgGwAamF2x/Gkvf//KJvXVmdiTauMhS+QZz/vmW28wzX/k4i/yJ3gJWL83wmrbWXRaWkbjpczsR5CqgWRbADqIfHWj5HPt/WiP5P1wa6NwNrcMWacuVtn7q2jKgnFhtwRXiLtHIANCWtNRar3wAagJv4oabWO4ptJ6+UU+EbuCGmEVMfOo9mXZK2NckPuBLuQctnnDQlrTUWq98C9AGohsCBhtSdY1LUuYb28xqOL1TRV8NN/MjvTrTo3eSnXAaji9w8uN94y9WwAYsIGIGZbzzuPpb2/Id2QXUYxVZ1qrEo3842x+MwtuUO8VEj4TH7MuPnQnqR8D+qlfg3AsjsPAOYnq1fw3WS1qiJkWsJ0Joo5d4SrlXxb/+5RSPfpN4TfJqs1JaUjAC1SvwZg1j4ph/+hjNV6rCaFGKq1mEg7K6joSXnGqWYDME7KT7/5NwDalVA4AtAi9WsAypiyARhlc0f9NsqJZR3mPKQ5dsqQchJYjcWKXmTG0uUqY0Unm5YV/dm0v/o1AMRD05WKD01sllMz0RUBmyfW7/cni1DR9znhLYCiqOZ7EJOOgtRK/RqAGP55slpF2JCsVpX8btNjuCBQcxTR+59pVPN9jkknAVbzPUjZBNVM/RqAIu6XrFas7HO1rTWxepez15uiop/KZppQ0YvMPkW6Rrqs6HsQ8Rhokfo1AJG5CYv9r3S1KmdD7gAzQunJL4norRaCv2t1U78GIMR0DUAITyarVTWRCj5T3UQh0UqA3gJIxffZJqh26tcARNLdAhiv6sziBEJVZxS3mTI6lyIJL35Em826qV8DEBI2AB2hxhfBGf69x1QrASqNYKMVEs43UCXUrwGIRcLvudafgn1+XZIqrH4NQMqh6fFYu92lnuMnKkmqsvo1AJF0DUDRkfCJg4qJCSdb5lG/Y0fSjFLDk1jCEYDInGS1qqZIONdCkjRl9WsAQsLJaSHOS1aramb+CIAktbX6NQAxaQOQbt+Bygn1bX4kqQ3UrwEg/t90pYo/SFarakI4LHeE1oo1PHYkzST1O4mFuCFhtXqOAPSvnk2MB+eO0Vo+5SCpvdWvASA8mq5WfG26WhWy//xDmfG/W44ASGpv9TuJzRrbkLDaq1j59zP8k/AuFB2H544gSdqz+jUAF5/+JCRcCyB2HJusVlWMh9fnjtB6IXcASZqW+jUAE9LdBojx3yerVRUhnpA7giRpz+rZAEQeSFjtjIS18uvvL4A6NAD1PHYkzRj1PImF+OOExY5hcOSQdPUym3/SsYBrAEhSxdWzAYhhXdqC42emrZdRCG/OHUGS9PLq2QDMKn4CpHuOuwwXJKuVW+AtuSMkEXMHkKTpqWcDcEnXVuDhZPUCJ7Jy5Mhk9XIZXHMMER8BlKQ2UM8GACBwX9J6ZflnSevlEItLckeQJE1OfRuA8XhH4orv5VP3zk9cM53Bew4E3pE7RjKhxseOpBmhviex2R1DwM6EFefx9M7FCesltvP9wJzcKSRJk1PfBmBiHsDdiasuZdWamfeI3OA9BxLD0twxJEmTV98GACCE1LcB5jNafCxxzdaLT38MmLm3NyRpBqp3A0C8PUPRSxlcc0yGuq2xcs1rgffmjiFJmpp6NwCLe34DrE1ctSAWq1i1rjNx3eYb/PZsyvA31P33SJLakCfuwF9nqHo8o1uuzlC3ucp9roEwc0YzpsZjR1Jb8yS2Y2w1sCV94fjnDAy37xLBA8N/SmBJ7hiSpL1jA3D56duI4ct5iscvMjDy2jy1p2Fw5ASIf5s7hiRp79kAAHSEmzNVng/lXSwfOSxT/am7fugIYnkbMDd3FEnS3rMBAFjUtY70awI862CKcg0Daw7NVH/yljeOZTzcCxyYO4okaXpsAJ5VlldlrH44FN9ncPjojBn2bGC4m4IR4KDcUSrCY0dSW/Mk9qylp94N3JMxwcHEeC+DFZsY2N9fsGLoQxDvAmbeKoaSVFM2AC8Qco4CAMwjxjsYbKxk2X3519UfHDmE/U9eQwhXA+2/boEk6Z/YADxfX/cwMfE2wbsSuZTO7fezstGdpf7gt2ezYuhDxPKXQJ4MkqSW8lPdi4WwCOKPyd0cRY4i0mCgcTshXsHi3vUtr3nLyBy2xHcR4xUEFrS8niQpG0cAXqyv+yfAp3LHeJ6ziOHnDAx/hxVDZ9Hf3/yf2WBjAYNDH2FL+Q8QV4EX/0nw2JHU1hwB2JU55ZWMhrdAeFXuKM8oIJ5BCGdwwMLHGGjcTox3sO/2YS46e9uUX23Vuk62bT6OIpwCvJnIcRCaHlqSVF02ALty0albWDHUR+AruaO8RIyHAO8jhPcxOncnA42HgfXE+HMCj0HYMvGHzRRxPuNxLqGYRywPI4TXQDic0d8dSxFcyEeSaswGYHeW9K5mYOgCCNV6LO+FZgNHA0cTwtue+89x4n9KIISJ/x/CC/9OklRr3sfck/GxdwIbcsdQJXnsSGprnsT25LIzNhHDW4GduaNIktRMNgAvZ0n3j4Arc8eQJKmZbAAmo6/nOojfyh1DkqRmsQGYrDnb3w5hbe4YkiQ1gw3AZF109jbmjP8HiA/kjqJK8NiR1NY8iU3FRaduoZz9RuA3uaMouzJ3AEmaDhuAqVq68AkCpwKP545SQRuJ8brcIRLx2JHU1jyJ7Y3FPb9hnD8BHswdpUK2QDgd+EXuIJKkl2cDsLcu63mcsngDIdydO0oFbCVy9jMbKUmS2oANwHQs7drMpo2nA1/IHSWjzYTiVJb03JM7SGIeO5Lamiex6eo/dyd9Pe8kxiuBsdxxEnsUipNZ3PWD3EEycBKgpLZmA9AsS3o/TlG8Hngkd5QkAj+gs3gdfV0P5Y6SiceOpLbmSayZFnWtY862PwI+nTtKa4VPwY43cEnXE7mTSJL2jtsBN9tFZ28DLmZl45uU4UaIh+WO1EQbieHPWNLtssiS1OYcAWiVRT13Mi/8ayY2EtqWO04TfIHZY//Gi78kzQyOALTSu7tGgY9z412fYeesKyC+H5iTO9YUPQBxKX29d+cOIklqHkcAUrj49Cfp6/4AncUfAh8HNuaONAnrIZzPU/f+sRf/XfLYkdTWHAFIaWLS3JUsu+9jdG5/G5F3Awtzx3qeEuLtBFayuHdor16hI2wg8tUm53qpGLe0vMaefZXA7NaXCY+1voZUYQW/JSbZf6V2y7uH3AFqb/nQAgreAuFNwAnk+WT5CPB1irFVLDp9Q4b6kqTEbACq5Ma7DmJnRzex6CLEhcARtKYhGAXuI4bbCGO303far1tQQ5JUYTYAVXbDyH6U8WjGOYYQXwNxAYQFwIHP/NnzLZzIkwSegPgYhEeA+6F4gKd4mP6uuq1aKEl6HhuAdrZ8ZD6xnEuIc+gIMB6BjpJ9Ojcz9vttLD5zZ+6IkiRJkiRJkiRJkiRJkiRJkiRJkiRJkiRJkiRJkiRJkiRJkiRJkiRJkiRJkiRJkiRJkiRJkiRJkiRJkiRJkiRJkiRJkiRJkiRJkiRJkiRJkiRJkiRJkiRJkiRJkiRJkiRJkiRJkiRJkiRJkiRJkiRJkiRJkiRJkiRJkiRJkiRJkiRJkiRJkiRJkiRJkiRJkiRJkiRJkiRJkiRJkiRJkiRJkiRJkiRJkiRJkiRJkiRJkiRJ0iT9f71DN2sziCzLAAAAAElFTkSuQmCC;" vertex="1" parent="1">
          <mxGeometry x="200" y="636.25" width="107.11" height="50" as="geometry" />
        </mxCell>
        <mxCell id="yeecXxTorHFTwbyr2bbs-30" value="" style="shape=image;verticalLabelPosition=bottom;labelBackgroundColor=default;verticalAlign=top;aspect=fixed;imageAspect=0;image=data:image/svg+xml,PHN2ZyB4bWxuczp4bGluaz0iaHR0cDovL3d3dy53My5vcmcvMTk5OS94bGluayIgeG1sbnM9Imh0dHA6Ly93d3cudzMub3JnLzIwMDAvc3ZnIiBoZWlnaHQ9IjIwMCIgd2lkdGg9IjgzOC40NzY1NjI1IiB2ZXJzaW9uPSIxLjEiIHZpZXdCb3g9IjAgMCA0MjkzIDEwMjQiIGNsYXNzPSJpY29uIj48cGF0aCBkPSJNMTAwOC4zMzk5NDcgOTU1LjkxNzk0OEg3NzAuMjI5ODY3bC03Mi44NDIzMjItMTc1LjY3OTE3MUgzMDAuNTUxNzIzTDIzNC4xODcwMTcgOTU1LjkxNzk0OEgwTDM1Ny43ODIyOTIgNjguNTY1MDU2aDI1Ni4zMTkzMTlsMzk0LjIzODMzNiA4ODcuMzUyODkyek00ODkuMjAyMjI2IDI4MC41OTgzMDRMMzU5LjA5NzEzNSA2MjUuMzgyNDNoMjczLjIzNTE4MmwtMTQzLjEzMDA5MS0zNDQuNzg0MTI2ek0xODczLjI4MTQ2OSA2OC41NjUwNTZoMTkyLjU1NzQ2N1Y5NTUuOTE3OTQ4aC0yMjEuMjEwMzE4VjQwMS42NTUxMjZsLTIzOS4zOTgwOTEgMjc4LjQxNDA1NGgtMzMuODE1NjI0bC0yMzkuMzgxOTktMjc4LjQxNDA1NFY5NTUuOTE3OTQ4aC0yMjEuMjEwMzE4VjY4LjU2NTA1NmgxOTIuNTU3NDY2bDI4NC45MzQ2MDQgMzI5LjE3MjM3NCAyODQuOTY2ODA0LTMyOS4xNzIzNzR6TTI2MjYuMzMyNTA1IDY4LjU2NTA1NmMzMjMuOTU1OTM0IDAgNDkwLjQ2ODc2OSAyMDEuNjQzMzAzIDQ5MC40Njg3NyA0NDQuOTQ4MzU2IDAgMjU1LjAwOTg0Mi0xNjEuMzEyNDk1IDQ0Mi40MDQ1MzctNTE1LjIwMzkyNSA0NDIuNDA0NTM2aC0zNjYuOTE2NDI4VjY4LjU2NTA1NmgzOTEuNjUxNTgzeiBtLTE3MC40NTczNjUgNzI0LjcxNDgyaDE0NC4zOTY2MzNjMjIyLjQ4NzU5NSAwIDI4OC44NTIzLTE1MC45NDkzODMgMjg4Ljg1MjMwMS0yODEuMDgxMzA4IDAtMTUyLjI0Mjc2LTgxLjk4MTgyNC0yODEuMDE2OTA3LTI5MS40NTUxNTQtMjgxLjAxNjkwN2gtMTQxLjc5OTE0N3Y1NjIuMDk4MjE1aDAuMDA1MzY3eiIvPjxwYXRoIGZpbGw9IiMwMEE3NkQiIGQ9Ik00MDE0LjQ0NzUxMiAyNzguOTY2ODI1aC00NTcuNTYwMTE5TDMyNzcuOTY4ODY5IDBINDI5My4zNjYwMzd2MTAxNS40MzQ3MzVsLTI3OC45MTg1MjUtMjc4LjkzNDYyNXpNMzU1Ni41NjAwMjQgNzM2LjgyNzQ3OVYzMzQuODY2NDUxTDMyNjkuMzk4MjM3IDYyMi4wMDY3NzF2NDAxLjk4MjQ5Nmg0MDEuOTA3MzYxbDI4Ny4xNDU2ODgtMjg3LjE2MTc4OHoiLz48L3N2Zz4=;" vertex="1" parent="1">
          <mxGeometry x="452.4" y="643.75" width="136.17" height="32.5" as="geometry" />
        </mxCell>
        <mxCell id="yeecXxTorHFTwbyr2bbs-32" value="&lt;b&gt;HostOS&lt;/b&gt;" style="rounded=0;whiteSpace=wrap;html=1;align=left;dashed=1;" vertex="1" parent="1">
          <mxGeometry x="70" y="530" width="850" height="70" as="geometry" />
        </mxCell>
        <mxCell id="yeecXxTorHFTwbyr2bbs-33" value="" style="shape=image;verticalLabelPosition=bottom;labelBackgroundColor=default;verticalAlign=top;aspect=fixed;imageAspect=0;image=data:image/svg+xml,PHN2ZyB4bWxuczp4bGluaz0iaHR0cDovL3d3dy53My5vcmcvMTk5OS94bGluayIgeG1sbnM9Imh0dHA6Ly93d3cudzMub3JnLzIwMDAvc3ZnIiBoZWlnaHQ9IjIwMCIgd2lkdGg9IjM1OS45NjA5Mzc1IiB2ZXJzaW9uPSIxLjEiIHZpZXdCb3g9IjAgMCAxODQzIDEwMjQiIGNsYXNzPSJpY29uIj48cGF0aCBmaWxsPSIjMDA2NEI0IiBkPSJNMzk2LjUyNTU2OCAzMDMuNTM0MDhoMjA1LjA0MTY2NHYyOC44NzY4SDM5Ni41MjU1Njh2LTI4Ljg3Njh6Ii8+PHBhdGggZmlsbD0iIzAwNjRCNCIgZD0iTTg1MS4zMjQ5MjggMzAzLjUzNDA4aDcuNjEwMzY4bDcuMTkyNTc2IDEuMTQ2ODggNy4xOTI1NzYgMS4zNTU3NzYgNy4yOTQ5NzYgMS41NjA1NzYgNy4yOTQ5NzYgMi40MDAyNTYgNi42NzIzODQgMi43MTE1NTIgNi42NzIzODQgMy4yMzE3NDQgNi43NzQ3ODQgMy41NDMwNCA2LjE0NCA0LjI3MjEyOCA1Ljk0MzI5NiA0LjI3MjEyOCA0LjU4NzUyIDQuMzc4NjI0aC0yOTMuNzQ0NjR2LTI4Ljg3Njh6Ii8+PHBhdGggZmlsbD0iIzAwNjRCNCIgZD0iTTk4Mi40NjI0NjQgMzAzLjUzNDA4aDE2Ni42ODI2MjRsMTAuMjE1NDI0IDI4Ljg3NjhoLTE3Ni44OTgwNDh2LTI4Ljg3Njh6Ii8+PHBhdGggZmlsbD0iIzAwNjRCNCIgZD0iTTEyODQuNjYxMjQ4IDMwMy41MzQwOGgxNjUuMTE3OTUydjI4Ljg3NjhoLTE3NS4zMzMzNzZsMTAuMjE1NDI0LTI4Ljg3Njh6Ii8+PHBhdGggZmlsbD0iIzAwNjRCNCIgZD0iTTM5Ni41MjU1NjggMzU5LjcxNDgxNmgyMDUuMDQxNjY0djI4LjQ1OTAwOEgzOTYuNTI1NTY4di0yOC40NTkwMDh6Ii8+PHBhdGggZmlsbD0iIzAwNjRCNCIgZD0iTTQ1NS4xMDY1NiA0MTUuMzgzNTUyaDg3LjY1NDR2MjkuMDgxNmgtODcuNjU0NHYtMjkuMDgxNnoiLz48cGF0aCBmaWxsPSIjMDA2NEI0IiBkPSJNNDU1LjEwNjU2IDQ3MS4yNTcwODhoODcuNjU0NHYyOS4wODE2aC04Ny42NTQ0di0yOS4wODE2eiIvPjxwYXRoIGZpbGw9IiMwMDY0QjQiIGQ9Ik05NDUuNDU1MTA0IDM1OS43MTQ4MTZsMS41NjQ2NzIgMi43MTE1NTIgMy4yMzE3NDQgNi43NzQ3ODQgMi43MTE1NTIgNy41MDM4NzIgMy40NDA2NCAxMS40Njg4aC0zMjUuNDQzNTg0di0yOC40NTkwMDh6Ii8+PHBhdGggZmlsbD0iIzAwNjRCNCIgZD0iTTY4OS41NDUyMTYgNDE1LjM4MzU1Mmg4Ny41NzY1NzZ2MjkuMDgxNmgtODcuNTc2NTc2di0yOS4wODE2eiIvPjxwYXRoIGZpbGw9IiMwMDY0QjQiIGQ9Ik05NTkuMTE1MjY0IDQxNS4zODM1NTJsLTAuMjA4ODk2IDQuNTg3NTItMC44MTkyIDcuNTAzODcyLTEuMTQ2ODggNy4yOTQ5NzYtMS43NzM1NjggNy4xOTI1NzYtMC44MTkyIDIuNTAyNjU2aC04OS4wNTExMzZ2LTI5LjA4MTZ6Ii8+PHBhdGggZmlsbD0iIzAwNjRCNCIgZD0iTTk0MS45MTIwNjQgNDcxLjI1NzA4OGwtMi43MTE1NTIgNC4wNjczMjgtNC41ODc1MiA1Ljk0MzI5Ni00Ljc5NjQxNiA1LjYyNzkwNC01LjEwNzcxMiA1LjMyNDgtNS42Mjc5MDQgNC45MTUyLTQuOTE1MiAzLjIzMTc0NGgtMjI0LjYyMDU0NHYtMjkuMDgxNnoiLz48cGF0aCBmaWxsPSIjMDA2NEI0IiBkPSJNOTgyLjQ2MjQ2NCAzNTkuNzE0ODE2aDE4Ni4yNzc4ODhsMTAuMjE1NDI0IDI4LjQ1OTAwOGgtMTk2LjQ5MzMxMnYtMjguNDU5MDA4eiIvPjxwYXRoIGZpbGw9IiMwMDY0QjQiIGQ9Ik0xNDQ5Ljc3OTIgMzU5LjcxNDgxNnYyOC40NTkwMDhoLTE5NC43MjM4NGw5LjkwNDEyOC0yOC40NTkwMDh6Ii8+PHBhdGggZmlsbD0iIzAwNjRCNCIgZD0iTTEwNDEuMTU0MDQ4IDQxNS4zODM1NTJoMTQ2Ljk4MDg2NGwxMC4yMTU0MjQgMjkuMDgxNmgtMTU3LjE5NjI4OHYtMjkuMDgxNnoiLz48cGF0aCBmaWxsPSIjMDA2NEI0IiBkPSJNMTM5Mi42NTIyODggNDE1LjM4MzU1MnYyOS4wODE2aC0xNTcuMjg2NGwxMC4wMDY1MjgtMjkuMDgxNnoiLz48cGF0aCBmaWxsPSIjMDA2NEI0IiBkPSJNMTEzOC4yMDQ2NzIgNTAwLjMzODY4OGgxNTcuNzIwNTc2bDguODU5NjQ4LTI1Ljg0OTg1NnYyNS44NDk4NTZoODcuODc1NTg0di0yOS4wODE2aC0xNjYuNTgwMjI0bC05LjE3NTA0IDI1Ljg1Mzk1Mi05LjE3NTA0LTI1Ljg1Mzk1MmgtMTY2LjU3NjEyOHYyOS4wODE2aDg3Ljg3NTU4NHYtMjYuMDU4NzUybDkuMTc1MDQgMjYuMDU4NzUyeiIvPjxwYXRoIGZpbGw9IiMwMDY0QjQiIGQ9Ik0zOTYuNTI1NTY4IDY5NS4yNzU1MmgyMDUuMDQxNjY0djI5LjI5MDQ5NkgzOTYuNTI1NTY4di0yOS4yOTA0OTZ6Ii8+PHBhdGggZmlsbD0iIzAwNjRCNCIgZD0iTTM5Ni41MjU1NjggNjM4Ljk4NDE5MmgyMDUuMDQxNjY0djI5LjI5MDQ5NkgzOTYuNTI1NTY4di0yOS4yOTA0OTZ6Ii8+PHBhdGggZmlsbD0iIzAwNjRCNCIgZD0iTTQ1NS4xMDY1NiA1MjcuNDQ2MDE2aDg3LjY1NDR2MjguNzcwMzA0aC04Ny42NTQ0di0yOC43NzAzMDR6Ii8+PHBhdGggZmlsbD0iIzAwNjRCNCIgZD0iTTQ1NS4xMDY1NiA1ODMuMzE5NTUyaDg3LjY1NDR2MjkuMDgxNmgtODcuNjU0NHYtMjkuMDgxNnoiLz48cGF0aCBmaWxsPSIjMDA2NEI0IiBkPSJNOTE0LjE4NjI0IDUyNy40NDYwMTZsNC45MTUyIDMuNTQzMDQgNS42Mjc5MDQgNC43OTY0MTYgNS4xMDc3MTIgNS40MTkwMDggNC43OTY0MTYgNS42Mjc5MDQgNC41ODc1MiA1Ljk0MzI5NiAyLjcxMTU1MiAzLjQ0MDY0aC0yNTIuMzg3MzI4di0yOC43NzAzMDR6Ii8+PHBhdGggZmlsbD0iIzAwNjRCNCIgZD0iTTY4OS41NDUyMTYgNTgzLjMxOTU1Mmg4Ny41NzY1NzZ2MjkuMDgxNmgtODcuNTc2NTc2di0yOS4wODE2eiIvPjxwYXRoIGZpbGw9IiMwMDY0QjQiIGQ9Ik05NTQuMzE4ODQ4IDU4My4zMTk1NTJsMC44MTkyIDIuODEzOTUyIDEuNzczNTY4IDcuMTkyNTc2IDEuMTQ2ODggNy4xOTI1NzYgMC44MTkyIDcuNTAzODcyIDAuMjA4ODk2IDQuMzc4NjI0aC05My43OTg0di0yOS4wODE2eiIvPjxwYXRoIGZpbGw9IiMwMDY0QjQiIGQ9Ik05NTYuNDAzNzEyIDYzOC45ODQxOTJsLTEuMjQ5MjggNS45NDMyOTYtMi4xODcyNjQgNi45ODM2OC0yLjcxMTU1MiA2Ljk4MzY4LTMuMjMxNzQ0IDYuNzc0Nzg0LTEuNTY0NjcyIDIuNjA1MDU2aC0zMTQuNDk5MDcydi0yOS4yOTA0OTZ6Ii8+PHBhdGggZmlsbD0iIzAwNjRCNCIgZD0iTTkyNC43MTI5NiA2OTUuMjc1NTJsLTUuNjI3OTA0IDQuNjg5OTItNS45NDMyOTYgNC41ODc1Mi02LjE0NCA0LjA2MzIzMi02LjY3MjM4NCAzLjU0NzEzNi02Ljc3NDc4NCAzLjIzMTc0NC02LjY3MjM4NCAyLjYwNTA1Ni03LjI5NDk3NiAyLjUwMjY1Ni03LjI5NDk3NiAxLjU2NDY3Mi02Ljk4MzY4IDEuMzU1Nzc2LTcuNTAzODcyIDAuODE5Mi03LjUwMzg3MiAwLjMxMTI5NmgtMjE5LjMzNjcwNHYtMjkuMjkwNDk2eiIvPjxwYXRoIGZpbGw9IiMwMDY0QjQiIGQ9Ik0xMDQxLjE1NDA0OCA1MjcuNDQ2MDE2aDg3Ljg3NTU4NHYyOC43NzAzMDRoLTg3Ljg3NTU4NHYtMjguNzcwMzA0eiIvPjxwYXRoIGZpbGw9IiMwMDY0QjQiIGQ9Ik0xMjc2LjMyMTc5MiA1NTYuMjE2MzJoLTExOS4xNDg1NDRsLTkuOTA0MTI4LTI4Ljc3MDMwNGgxMzkuMTYxNmwtMTAuMTEzMDI0IDI4Ljc3MDMwNHoiLz48cGF0aCBmaWxsPSIjMDA2NEI0IiBkPSJNMTMwNC43NzY3MDQgNTI3LjQ0NjAxNmg4Ny44NzU1ODR2MjguNzcwMzA0aC04Ny44NzU1ODR2LTI4Ljc3MDMwNHoiLz48cGF0aCBmaWxsPSIjMDA2NEI0IiBkPSJNMTA0MS4xNTQwNDggNTgzLjMxOTU1Mmg4Ny44NzU1ODR2MjkuMDgxNmgtODcuODc1NTg0di0yOS4wODE2eiIvPjxwYXRoIGZpbGw9IiMwMDY0QjQiIGQ9Ik0xMjY3LjQ1ODA0OCA1ODMuMzE5NTUybC0xMC4wMDY1MjggMjkuMDgxNmgtODEuMTAwOGwtMTAuMDA2NTI4LTI5LjA4MTZ6Ii8+PHBhdGggZmlsbD0iIzAwNjRCNCIgZD0iTTEzMDQuNzc2NzA0IDU4My4zMTk1NTJoODcuODc1NTg0djI5LjA4MTZoLTg3Ljg3NTU4NHYtMjkuMDgxNnoiLz48cGF0aCBmaWxsPSIjMDA2NEI0IiBkPSJNOTgyLjQ2MjQ2NCA2MzguOTg0MTkyaDE0Ni41NjMwNzJ2MjkuMjkwNDk2aC0xNDYuNTYzMDcydi0yOS4yOTA0OTZ6Ii8+PHBhdGggZmlsbD0iIzAwNjRCNCIgZD0iTTEyNDguMjgwNTc2IDYzOC45ODQxOTJsLTkuOTA0MTI4IDI5LjI5MDQ5NmgtNDIuOTQ2NTZsLTEwLjAwNjUyOC0yOS4yOTA0OTZ6Ii8+PHBhdGggZmlsbD0iIzAwNjRCNCIgZD0iTTEzMDQuNzc2NzA0IDYzOC45ODQxOTJoMTQ0Ljk5ODR2MjkuMjkwNDk2aC0xNDQuOTk4NHYtMjkuMjkwNDk2eiIvPjxwYXRoIGZpbGw9IiMwMDY0QjQiIGQ9Ik05ODIuNDYyNDY0IDY5NS4yNzU1MmgxNDYuNTYzMDcydjI5LjI5MDQ5NmgtMTQ2LjU2MzA3MnYtMjkuMjkwNDk2eiIvPjxwYXRoIGZpbGw9IiMwMDY0QjQiIGQ9Ik0xMzA0Ljc3NjcwNCA2OTUuMjc1NTJoMTQ0Ljk5ODR2MjkuMjkwNDk2aC0xNDQuOTk4NHYtMjkuMjkwNDk2eiIvPjxwYXRoIGZpbGw9IiMwMDY0QjQiIGQ9Ik0xMjE4Ljk5MDA4IDcyNC41NjYwMTZsMTAuMDA2NTI4LTI5LjI5MDQ5NmgtMjQuMTY2NGw5LjkwMDAzMiAyOS4yOTA0OTZ6Ii8+PC9zdmc+;" vertex="1" parent="1">
          <mxGeometry x="620" y="620" width="144" height="80" as="geometry" />
        </mxCell>
        <mxCell id="yeecXxTorHFTwbyr2bbs-34" value="" style="shape=image;verticalLabelPosition=bottom;labelBackgroundColor=default;verticalAlign=top;aspect=fixed;imageAspect=0;image=data:image/svg+xml,PHN2ZyB4bWxuczp4bGluaz0iaHR0cDovL3d3dy53My5vcmcvMTk5OS94bGluayIgeG1sbnM9Imh0dHA6Ly93d3cudzMub3JnLzIwMDAvc3ZnIiBoZWlnaHQ9IjIwMCIgd2lkdGg9IjIwMCIgdmVyc2lvbj0iMS4xIiB2aWV3Qm94PSIwIDAgMTAyNCAxMDI0IiBjbGFzcz0iaWNvbiI+PHBhdGggZmlsbD0iIzA0MDAwMCIgZD0iTTkyOC43NjggNzUwLjU5MmMtMS41MzYgNC4wOTYtMjEuNTA0IDc0LjI0LTcwLjY1NiAxNDUuOTItNDMuMDA4IDYyLjQ2NC04Ny4wNCAxMjQuOTI4LTE1Ni42NzIgMTI1Ljk1Mi02OC42MDggMS4wMjQtOTAuNjI0LTQwLjk2LTE2OC45Ni00MC45NnMtMTAyLjkxMiAzOS45MzYtMTY3LjkzNiA0MS45ODRjLTY3LjA3MiAyLjU2LTExOC43ODQtNjguMDk2LTE2MS43OTItMTMwLjA0OEMxMTUuMiA3NjcuNDg4IDQ3LjYxNiA1MzQuNTI4IDEzOC4yNCAzNzguODhjNDQuNTQ0LTc3LjgyNCAxMjQuOTI4LTEyNy40ODggMjExLjk2OC0xMjkuMDI0IDY1LjUzNi0xLjAyNCAxMjguNTEyIDQ0LjU0NCAxNjguNDQ4IDQ0LjU0NCA0MC45NiAwIDExNi43MzYtNTUuMjk2IDE5Ni42MDgtNDcuMTA0IDMzLjI4IDEuNTM2IDEyNi45NzYgMTMuODI0IDE4Ni44OCAxMDEuMzc2LTQuNjA4IDMuMDcyLTExMS42MTYgNjYuNTYtMTEwLjU5MiAxOTUuMDcyIDEuMDI0IDE1NS4xMzYgMTM1LjY4IDIwNi4zMzYgMTM3LjIxNiAyMDYuODQ4bS0yNjYuMjQtNTg2LjI0YzM1Ljg0LTQ0LjAzMiA1OS45MDQtMTA0LjQ0OCA1My4yNDgtMTY0LjM1Mi01MS4yIDIuMDQ4LTExNC4xNzYgMzQuMzA0LTE1MS4wNCA3Ny44MjQtMzIuNzY4IDM3Ljg4OC02MS45NTIgOTkuMzI4LTUzLjc2IDE1OC43MiA1Ni44MzIgMy4wNzIgMTE1LjcxMi0zMC4yMDggMTUxLjU1Mi03Mi4xOTIiLz48L3N2Zz4=;" vertex="1" parent="1">
          <mxGeometry x="470" y="542.5" width="45" height="45" as="geometry" />
        </mxCell>
        <mxCell id="yeecXxTorHFTwbyr2bbs-35" value="" style="shape=image;verticalLabelPosition=bottom;labelBackgroundColor=default;verticalAlign=top;aspect=fixed;imageAspect=0;image=data:image/svg+xml,PHN2ZyB4bWxuczp4bGluaz0iaHR0cDovL3d3dy53My5vcmcvMTk5OS94bGluayIgeG1sbnM9Imh0dHA6Ly93d3cudzMub3JnLzIwMDAvc3ZnIiBoZWlnaHQ9IjIwMCIgd2lkdGg9IjIwMCIgdmVyc2lvbj0iMS4xIiB2aWV3Qm94PSIwIDAgMTAyNCAxMDI0IiBjbGFzcz0iaWNvbiI+PHBhdGggZmlsbD0iIzAwYWRlZiIgZD0iTTQ1NiA0ODRWMTYwLjFsLTMzNS45IDcyVjQ4NEg0NTZ6TTUxMiA0ODRoMzkxLjhWNjQuMmwtMzkxLjggODRWNDg0ek00NTYgNTQwSDEyMC4ydjI1MS45bDMzNS45IDcyVjU0MHpNNTEyIDU0MHYzMzUuOWwzOTEuOCA4NFY1NDBINTEyeiIvPjwvc3ZnPg==;" vertex="1" parent="1">
          <mxGeometry x="600" y="535" width="60" height="60" as="geometry" />
        </mxCell>
        <mxCell id="yeecXxTorHFTwbyr2bbs-36" value="" style="shape=image;verticalLabelPosition=bottom;labelBackgroundColor=default;verticalAlign=top;aspect=fixed;imageAspect=0;image=data:image/svg+xml,PHN2ZyB4bWxuczp4bGluaz0iaHR0cDovL3d3dy53My5vcmcvMTk5OS94bGluayIgeG1sbnM9Imh0dHA6Ly93d3cudzMub3JnLzIwMDAvc3ZnIiBoZWlnaHQ9IjIwMCIgd2lkdGg9IjIwMCIgdmVyc2lvbj0iMS4xIiB2aWV3Qm94PSIwIDAgMTAyNCAxMDI0IiBjbGFzcz0iaWNvbiI+PHBhdGggZmlsbD0iI0ZGRkZGRiIgZD0iTTUyNS4yIDE5OC4zYy04LjYgNS42LTE1LjIgMTMuOC0xOC45IDIzLjQtMy44IDEyLjQtMy4yIDI1LjYgMS41IDM3LjcgMy45IDEyLjcgMTEuNyAyMy44IDIyLjIgMzEuOCA1LjQgMy44IDExLjYgNi4yIDE4LjIgNyA2LjYgMC44IDEzLjItMC4zIDE5LjEtMy4zIDctMy45IDEyLjYtMTAgMTUuOS0xNy4zIDMuMi03LjQgNS0xNS4zIDUuMi0yMy4zIDAuNy0xMC4yLTAuNi0yMC40LTMuOC0zMC4xLTMuNS0xMC42LTEwLjMtMTkuNy0xOS41LTI1LjktNC43LTMtOS45LTUtMTUuNC01LjgtNS41LTAuOC0xMS4xLTAuMi0xNi4zIDEuOC0yLjkgMS4yLTUuNyAyLjctOC4zIDQuNSIvPjxwYXRoIGZpbGw9IiMwMjAyMDQiIGQ9Ik04MTAuMiA2MDYuNWMtNS4xLTI4LjMtMTMuMS01Ni0yMy44LTgyLjYtNy4zLTE5LjgtMTcuMi0zOC42LTI5LjUtNTUuOC0xMi40LTE2LjUtMjguMS0zMC40LTQwLjItNDcuMS02LjQtOC43LTExLjgtMTguNC0xOC41LTI2LjktMi43LTUuNi01LjMtMTEuMi03LjktMTYuOC04LTE3LjUtMTUuMy0zNS40LTI0LjgtNTItMS41LTIuNi0zLjEtNS4yLTQuNi03LjctMS4yLTE2LTIuOS0zMi0zLjgtNDggMC43LTMyLjEtMi02NC4zLTguMS05NS45LTQuMi0xNS4xLTEwLjYtMjkuNi0xOS00Mi44LTkuOC0xNS42LTIyLjQtMjkuMi0zNy4yLTQwLjEtMjQuMS0xNy4xLTUyLjktMjYuMy04Mi40LTI2LjQtMjEuNy0wLjUtNDMuMiA0LjQtNjIuNSAxNC40LTIwLjMgMTEuMS0zNi43IDI4LjItNDcgNDguOS05LjYgMjAuOS0xNC43IDQzLjUtMTUgNjYuNS0wLjggMjIuNiAxLjMgNDUgMi4yIDY3LjYgMC45IDIzLjQgMC40IDQ2LjkgMi4zIDcwLjMgMC42IDcuNSAxLjUgMTUgMS41IDIyLjYgMCAzLjgtMC4yIDcuNi0wLjMgMTEuM2wtMC4zIDAuOGMtMTAuMiAxNy4zLTIxLjUgMzQtMzMuOCA0OS45LTguNiAxMC45LTE3LjIgMjEuNy0yNS45IDMyLjQtMTEuMyAxMi43LTIwLjkgMjYuOC0yOC41IDQyLTUuMSAxMy4yLTkuMiAyNi44LTEyLjQgNDAuNmwtMC4zIDEuMWMtNC44IDE1LjktMTAuOCAzMS4zLTE4IDQ2LjItMC43IDEuNC0xLjQgMi45LTIgNC4yLTQuMyA4LjktOC44IDE3LjgtMTMuNSAyNi41bC01LjQgMTAuMWMtMy40IDYuMS02LjQgMTIuNC05IDE4LjgtMS41IDMuOS0yLjcgNy45LTMuNCAxMi0xLjMgOC43LTAuNyAxNy41IDEuNiAyNS45IDAuNSAyLjEgMS4yIDQuMiAxLjkgNi4zIDIuMiA2LjIgNC44IDEyLjMgNy45IDE4LjEgMS40IDIuNyAyLjkgNS4zIDQuMyA4bDEuMyAxLjljMS40IDIuNSAyLjkgNSA0LjQgNy40bDAuMiAwLjNjMS43IDIuOCAzLjYgNS41IDUuNCA4LjJsMC4zIDAuNGMxLjkgMi42IDMuOCA1LjMgNS44IDcuOSA3LjQgMjguOSAyMSA1NS44IDM5LjcgNzktMi45IDUuMS01LjUgMTAuMS04LjQgMTUuMS0xMC4yIDE0LjgtMTguNiAzMC43LTI1LjEgNDcuNC0yLjcgOC42LTMuNCAxNy43LTEuOSAyNi42IDEuNCA5IDYgMTcuMSAxMyAyMyA0LjcgMy42IDEwLjEgNi4xIDE1LjggNy4zIDUuNyAxLjIgMTEuNiAxLjggMTcuNSAxLjUgMjIuMi0xLjcgNDQuMi02LjEgNjUuNC0xMi45IDEyLjgtMy40IDI1LjYtNi40IDM4LjYtOSAxMy41LTMuMSAyNy4yLTUgNDEtNS42IDMuNCAwLjEgNi44LTAuMSAxMC4xLTAuMyA5LjQgMSAxOC44IDEuNCAyOC4zIDFsMy41LTAuMmMyLjQgMC4zIDQuOSAwLjQgNy40IDAuNiAxNi42IDAuOSAzMy4xIDIuNiA0OS41IDUuMSAxNC40IDIuMiAyOC44IDUgNDMgOC41IDIxLjkgNi42IDQ0LjQgMTEgNjcuMyAxMi45IDYgMC4zIDEyLTAuMiAxOC0xLjQgNS45LTEuMiAxMS41LTMuOCAxNi4zLTcuNCA3LTUuOCAxMS42LTEzLjkgMTMuMS0yMi45IDEuNS04LjkgMC44LTE4LTEuOS0yNi42LTYuNi0xNi43LTE1LjEtMzIuNi0yNS41LTQ3LjMtMy42LTYuMS03LTEyLjQtMTAuNi0xOC41IDE1LjUtMTcuMyAyOS4yLTM2LjMgNDAuNy01Ni41IDcgMC40IDEzLjktMC40IDIwLjYtMi42IDE3LjUtNS45IDMyLjctMTcuMyA0My4zLTMyLjUgMy4yLTQuNSA1LjctOS41IDcuMi0xNC44IDYuOS0xMC43IDExLjYtMjIuNyAxMy44LTM1LjMgMy4yLTIwLjggMi43LTQyLjEtMS41LTYyLjdoLTAuMnogbTAgMCIvPjxwYXRoIGZpbGw9IiNGRkZGRkYiIGQ9Ik00MjUuNiAzMjMuMmMtMy4xIDQtNS4zIDguNy02LjQgMTMuNi0xLjEgNC45LTEuOCAxMC0xLjkgMTUgMC4zIDEwLjEtMC41IDIwLjItMi41IDMwLjEtMy41IDEwLjMtOC44IDE5LjgtMTUuNiAyOC4zLTExLjcgMTQuNy0yMC45IDMxLjItMjcuMiA0OC44LTMuMiAxMC45LTQuMyAyMi4zLTMuMSAzMy43LTEyLjEgMTcuOS0yMi42IDM2LjktMzEuMyA1Ni43LTEzLjQgMjkuOS0yMiA2MS44LTI1LjUgOTQuNC00LjMgNDAuMSAxLjYgODAuNiAxNyAxMTcuOCAxMS4zIDI2LjggMjguNSA1MC44IDUwLjMgNzAuMSAxMS4yIDkuNyAyMy41IDE3LjkgMzYuNyAyNC40IDQ2LjcgMjIuOCAxMDEuNCAyMi4zIDE0Ny42LTEuNCAyMy4xLTEzLjUgNDQuMi0zMC4yIDYyLjYtNDkuNSAxMS45LTEwLjggMjIuNS0yMi45IDMxLjgtMzYuMSAxNS41LTI2LjkgMjQuNi01Ny4xIDI2LjUtODguMSA5LjYtNTMuNiAzLjctMTA4LjgtMTYuOS0xNTkuMi04LjEtMTYuOC0xOC44LTMyLjItMzEuOC00NS42YTI1Mi41IDI1Mi41IDAgMCAwLTIwLjItNjhjLTcuMi0xNS41LTE1LjktMzAuMy0yMi42LTQ2LjItMi43LTYuNS01LjEtMTMuMS04LjEtMTkuNC0yLjktNi40LTYuOS0xMi4zLTExLjgtMTcuMy01LjMtNC45LTExLjYtOC42LTE4LjUtMTAuNy02LjktMi4yLTE0LTMuNC0yMS4yLTMuNi0xNC40LTAuNy0yOC45IDEuMS00My4xIDAuNi0xMS41LTAuNS0yMi44LTIuNS0zNC4zLTEuOC01LjcgMC4zLTExLjQgMS40LTE2LjcgMy41LTUuNCAyLjEtMTAuMSA1LjUtMTMuOCAxMG00LjYtMTI1LjFjLTUuNCAwLjQtMTAuNSAyLjctMTQuNCA2LjQtMy45IDMuNy02LjggOC40LTguNCAxMy41LTIuNyAxMC40LTMuNCAyMS4zLTEuOSAzMiAwLjIgOS43IDEuOSAxOS40IDUuMSAyOC42IDEuOCA0LjUgNC40IDguNyA3LjggMTIuMiAzLjQgMy41IDcuNyA2LjEgMTIuNCA3LjMgNC41IDEuMSA5LjIgMC45IDEzLjUtMC41IDQuMy0xLjQgOC4zLTMuOCAxMS41LTcgNC43LTQuOCA4LjEtMTAuNyA5LjgtMTcuMSAxLjctNi40IDIuNS0xMy4xIDIuMy0xOS44IDAtOC4zLTEuMy0xNi42LTMuOC0yNC42cy02LjgtMTUuMy0xMi42LTIxLjRjLTIuOC0yLjktNi01LjQtOS42LTcuMi0zLjctMS43LTcuNy0yLjYtMTEuNy0yLjRtOTUgMGMtOC42IDUuNi0xNS4yIDEzLjgtMTguOSAyMy40LTMuOCAxMi40LTMuMiAyNS42IDEuNSAzNy43IDMuOSAxMi43IDExLjcgMjMuOCAyMi4yIDMxLjggNS40IDMuOCAxMS42IDYuMiAxOC4yIDcgNi42IDAuOCAxMy4yLTAuMyAxOS4xLTMuMyA3LTMuOSAxMi42LTEwIDE1LjktMTcuMyAzLjItNy40IDUtMTUuMyA1LjItMjMuMyAwLjctMTAuMi0wLjYtMjAuNC0zLjgtMzAuMS0zLjUtMTAuNi0xMC4zLTE5LjctMTkuNS0yNS45LTQuNy0zLTkuOS01LTE1LjQtNS44LTUuNS0wLjgtMTEuMS0wLjItMTYuMyAxLjgtMi45IDEuMi01LjcgMi43LTguMyA0LjUiLz48cGF0aCBmaWxsPSIjMDIwMjA0IiBkPSJNNTQ0LjUgMjIzLjZjLTMuMiAwLjItNi4yIDEuMi04LjkgMi45cy01IDQtNi44IDYuNmMtMy40IDUuMy01LjMgMTEuNS01LjQgMTcuOS0wLjMgNC43IDAuNCA5LjUgMS45IDE0czQuMyA4LjUgNy45IDExLjVjMy44IDMuMSA4LjQgNC45IDEzLjMgNS4yIDQuOSAwLjIgOS43LTEuMSAxMy43LTMuOSAzLjItMi4zIDUuOC01LjIgNy42LTguNyAxLjgtMy40IDIuOS03LjIgMy40LTExIDEtNi44LTAuMi0xMy44LTMuMi0xOS45LTMuMS02LjItOC40LTEwLjktMTQuOC0xMy40LTIuOC0xLjEtNS43LTEuNS04LjctMS40Ii8+PHBhdGggZmlsbD0iI0ZGRkZGRiIgZD0iTTQzMC4yIDE5OC4zYy01LjQgMC40LTEwLjUgMi43LTE0LjQgNi40LTMuOSAzLjctNi44IDguNC04LjQgMTMuNS0yLjcgMTAuNC0zLjQgMjEuMy0xLjkgMzIgMC4yIDkuNyAxLjkgMTkuNCA1LjEgMjguNiAxLjggNC42IDQuNCA4LjcgNy44IDEyLjIgMy40IDMuNSA3LjcgNi4xIDEyLjQgNy4zIDQuNSAxLjEgOS4yIDAuOSAxMy41LTAuNSA0LjMtMS40IDguMy0zLjggMTEuNS03IDQuNy00LjggOC4xLTEwLjcgOS44LTE3LjEgMS43LTYuNCAyLjUtMTMuMSAyLjMtMTkuOCAwLTguMy0xLjMtMTYuNi0zLjgtMjQuNnMtNi44LTE1LjMtMTIuNi0yMS40Yy0yLjgtMi45LTYtNS40LTkuNi03LjItMy43LTEuNy03LjctMi42LTExLjctMi40Ii8+PHBhdGggZmlsbD0iIzAyMDIwNCIgZD0iTTQxNy4zIDI0Mi44Yy0xLjMgNi43LTEgMTMuNyAxLjEgMjAuMiAxLjYgNC4zIDQgOC4yIDcuMiAxMS41IDIgMi4yIDQuMyA0LjEgNyA1LjQgMi43IDEuNCA1LjcgMS44IDguNyAxLjEgMi43LTAuNyA1LTIuMyA2LjctNC41IDEuNy0yLjIgMi45LTQuNyAzLjctNy4zIDIuMy03LjggMi4xLTE2LjEtMC40LTIzLjktMS42LTUuNy00LjctMTAuOS05LjEtMTQuOC0yLjEtMS44LTQuNy0zLjItNy40LTMuOS0yLjgtMC43LTUuNy0wLjUtOC40IDAuNy0yLjggMS40LTUuMSAzLjctNi41IDYuNS0xLjQgMi44LTIuMyA1LjgtMi43IDguOSIvPjxwYXRoIGZpbGw9IiNEOTlBMDMiIGQ9Ik00MDQuNiAzMjYuOWMwLjIgMC45IDAuNSAxLjggMSAyLjUgMC45IDEuNCAyIDIuNSAzLjQgMy40IDEuMyAwLjkgMi42IDEuNyAzLjkgMi41IDYuOSA0LjcgMTMgMTAuNSAxNy45IDE3LjMgNiA5LjQgMTMuNSAxNy44IDIyIDI1IDYuNSA0LjUgMTQuMSA3LjIgMjIgNy45IDkuMiAwLjcgMTguNS0wLjQgMjcuNC0zLjIgOC4yLTIuNCAxNi4xLTUuOCAyMy41LTEwLjMgMTIuNy0xMC4yIDI2LjMtMTkuMiA0MC43LTI2LjcgMy40LTEuMiA2LjgtMi4xIDEwLTMuNiAzLjMtMS40IDYuMS0zLjggNy44LTcgMS4xLTMuMiAxLjgtNi42IDEuOS0xMCAwLjUtMy42IDEuNy03LjEgMi4zLTEwLjcgMC44LTMuNiAwLjUtNy4zLTAuOC0xMC44LTEuNC0yLjctMy42LTQuOS02LjMtNi4zLTIuNy0xLjMtNS43LTIuMS04LjctMi4yLTYuMSAwLjItMTIuMSAwLjgtMTggMS44LTggMC43LTE2LTAuMy0yNCAwLTkuOSAwLjMtMTkuOCAyLjUtMjkuOCAyLjktMTEuNCAwLjYtMjIuNy0xLjItMzQuMS0xLjctNC45LTAuMy05LjktMC4xLTE0LjggMC43LTQuOSAwLjctOS42IDIuNS0xMy43IDUuMy0zLjggMy03LjMgNi4yLTEwLjcgOS42LTEuOCAxLjYtMy44IDMtNS45IDQuMS0yLjIgMS4xLTQuNSAxLjctNyAxLjYtMS4yLTAuMi0yLjUtMC4yLTMuNyAwLTAuNyAwLjMtMS40IDAuNy0xLjkgMS4ybC0xLjUgMS44Yy0xIDEuNS0xLjkgMy4xLTIuNiA0LjciLz48cGF0aCBmaWxsPSIjNjA0NDA1IiBkPSJNNDI5LjcgMzAxLjdjLTQgMi40LTcuOSA1LTExLjggNy43LTIuMSAxLjMtMy44IDMtNS4xIDUuMS0wLjcgMS42LTEgMy4zLTAuOSA1IDAuMSAxLjcgMC4xIDMuNCAwIDUuMS0wLjEgMS4xLTAuNSAyLjMtMC41IDMuNSAwIDAuNiAwIDEuMiAwLjIgMS43IDAuMiAwLjYgMC40IDEuMSAwLjggMS41IDAuNSAwLjUgMS4yIDAuOSAyIDEuMSAwLjcgMC4yIDEuNSAwLjMgMi4zIDAuNSAzLjUgMSA2LjcgMi45IDkuMyA1LjQgMi43IDIuNCA1LjEgNS4yIDggNy41IDggNiAxNy43IDkuMSAyNy42IDkgOS45LTAuMiAxOS43LTEuNiAyOS4yLTQuMSA3LjUtMS42IDE0LjktMy42IDIyLjEtNi4xIDExLjItNC4yIDIxLjUtMTAuMyAzMC40LTE4LjIgMy45LTMuOCA4LTcuMiAxMi40LTEwLjMgNC0yLjUgOC43LTQuMiAxMi43LTYuNiAwLjQtMC4yIDAuNy0wLjUgMS4xLTAuNyAwLjMtMC4zIDAuNi0wLjYgMC44LTEgMC4zLTAuNyAwLjMtMS41IDAtMi4yLTAuMi0wLjctMC41LTEuMy0wLjktMS44LTAuNS0wLjYtMS4xLTEuMi0xLjctMS43LTQuNi0zLjQtMTAuMS01LjMtMTUuOC01LjUtNS44LTAuNC0xMS4zIDAtMTYuOS0xLjEtNS4yLTEuMS0xMC4zLTIuNi0xNS4zLTQuNC01LjMtMS43LTEwLjctMy0xNi4zLTMuOS0xMy0yLjEtMjYuMi0xLjgtMzkuMSAxLTEyLjEgMi43LTIzLjggNy4zLTM0LjYgMTMuNSIvPjxwYXRoIGZpbGw9IiNGNUJEMEMiIGQ9Ik00MjguNCAyODguMWMtNS44IDMuOS0xMSA4LjctMTUuNSAxNC4xLTIuNiAzLTQuNyA2LjUtNi4xIDEwLjMtMC45IDMtMS41IDYuMS0yIDkuMi0wLjMgMS4xLTAuNSAyLjMtMC41IDMuNSAwIDAuNiAwLjEgMS4yIDAuMyAxLjcgMC4yIDAuNiAwLjUgMS4xIDAuOSAxLjUgMC43IDAuNyAxLjYgMS4xIDIuNiAxLjMgMC45IDAuMiAxLjkgMC4yIDIuOSAwLjMgNC40IDAuNyA4LjUgMi41IDEyLjEgNS4xIDMuNiAyLjUgNyA1LjQgMTAuNyA3LjggOC40IDUgMTggNy43IDI3LjggNy45IDkuOCAwLjIgMTkuNS0wLjggMjktMi45IDcuNi0xLjQgMTUuMS0zLjUgMjIuNC02LjMgMTAuOS00LjcgMjEuMS0xMC44IDMwLjQtMTguMiA0LjMtMy4yIDguNS02LjYgMTIuNC0xMC4zIDEuMy0xLjMgMi42LTIuNiA0LTMuOCAxLjQtMS4yIDMtMi4xIDQuNy0yLjcgMi43LTAuNyA1LjUtMC44IDguMy0wLjEgMiAwLjUgNC4xIDAuNyA2LjIgMC43IDEuMSAwIDIuMS0wLjIgMy4xLTAuNSAxLTAuNCAxLjktMSAyLjUtMS44IDAuOS0xLjEgMS4zLTIuNCAxLjMtMy44cy0wLjQtMi43LTEuMS0zLjljLTEuNS0yLjMtMy44LTQuMS02LjMtNS4xLTMuNS0xLjQtNy4xLTIuNS0xMC44LTMuMi0xMS4zLTIuNy0yMi4zLTYuNy0zMi43LTExLjktNS4yLTIuNi0xMC4xLTUuNC0xNS4zLTguMS01LjItMi45LTEwLjYtNS40LTE2LjItNy4yLTEyLjktMy41LTI2LjYtMi45LTM5LjEgMS44LTE0IDQuOS0yNi41IDEzLjQtMzYuMSAyNC43Ii8+PHBhdGggZmlsbD0iI0NEODkwNyIgZD0iTTQ5My41IDI3Mi4yYzAuNyAyLjMgNC4zIDEuOSA2LjQgMi45IDIuMSAxIDMuMyAyLjkgNS4zIDMuMSAyLjEgMC4yIDUtMC43IDUuMy0yLjYgMC40LTIuNi0zLjQtNC4yLTUuOC01LjEtMy4yLTEuNS02LjgtMS42LTEwLTAuMi0wLjcgMC4zLTEuNCAxLjItMS4yIDEuOXogbS0zNC40LTEuMmMtMi43LTAuOS03LjEgMy44LTUuOCA2LjMgMC40IDAuNyAxLjYgMS41IDIuNCAxLjEgMC44LTAuNCAyLjMtMy4xIDMuNi00IDEtMC44IDAuOC0zLjEtMC4yLTMuNHogbTAgMCIvPjxwYXRoIGZpbGw9IiNGNUJEMEMiIGQ9Ik04ODcuNyA4MjkuOGMtMiA1LjItNC45IDEwLTguNSAxNC4zLTguNCA5LTE4LjYgMTYuMi0yOS44IDIxLjItMTkgOC44LTM3LjUgMTguNi01NS41IDI5LjMtMTEuNyA3LjgtMjIuNiAxNi42LTMyLjcgMjYuNC04LjMgOC43LTE3LjIgMTYuNy0yNi42IDI0LjItOS44IDcuMi0yMS4xIDEyLjEtMzMuMSAxNC0xNC43IDEuOS0yOS42LTAuNC00My4xLTYuNS05LjctMy43LTE4LjEtMTAuMi0yNC0xOC44LTUtOS4yLTcuMy0xOS41LTYuOC0yOS45IDAuNi0xOC4zIDIuOC0zNi41IDYuNi01NC41IDIuNi0xNSA1LjItMzAgNi44LTQ1LjEgMi44LTI3LjYgMy4xLTU1LjMgMS04Mi45LTAuNS00LjYtMC41LTkuMyAwLTEzLjkgMC42LTkuNCA4LjUtMTYuNiAxOC0xNi41IDQuMy0wLjEgOC42IDAuMyAxMi44IDEuMSAxMCAxLjIgMjAgMi45IDI5LjggNS4yIDYuMSAxLjYgMTIuMiAzLjggMTguMyA1LjUgMTAuMiAzIDIxIDMuOSAzMS42IDIuOSAxMS4xLTIuNiAyMi40LTQuMyAzMy44LTUuMyA0LjcgMC4yIDkuNCAxIDEzLjggMi40IDQuNiAxLjMgOC45IDMuNiAxMi40IDYuOSAyLjUgMi43IDQuNSA1LjggNS44IDkuMiAxLjkgNS4xIDMuMSAxMC40IDMuNSAxNS44IDAuMiA0LjggMC42IDkuNiAxLjIgMTQuNCAxLjcgNy43IDUuNCAxNC45IDEwLjYgMjAuOSA1LjMgNS44IDExIDExLjIgMTcuMiAxNiA1LjkgNS4yIDEyLjEgMTAgMTguNiAxNC40IDMuMSAyLjEgNi4yIDQgOS4xIDYuMyAzIDIuMiA1LjUgNSA3LjQgOC4yIDIuNCA0LjQgMy4yIDkuNSAyIDE0LjQiLz48cGF0aCBmaWxsPSIjRjVCRDBDIiBkPSJNODg3LjcgODI5LjhjLTIgNS4yLTQuOSAxMC04LjUgMTQuMy04LjQgOS0xOC42IDE2LjItMjkuOCAyMS4yLTE5IDguOC0zNy41IDE4LjYtNTUuNSAyOS4zLTExLjcgNy44LTIyLjYgMTYuNi0zMi43IDI2LjQtOC4zIDguNy0xNy4yIDE2LjctMjYuNiAyNC4yLTkuOCA3LjItMjEuMSAxMi4xLTMzLjEgMTQtMTQuNyAxLjktMjkuNi0wLjQtNDMuMS02LjUtOS43LTMuNy0xOC4xLTEwLjItMjQtMTguOC01LTkuMi03LjMtMTkuNS02LjgtMjkuOSAwLjYtMTguMyAyLjgtMzYuNSA2LjYtNTQuNSAyLjYtMTUgNS4yLTMwIDYuOC00NS4xIDIuOC0yNy42IDMuMS01NS4zIDEtODIuOS0wLjUtNC42LTAuNS05LjMgMC0xMy45IDAuNi05LjQgOC41LTE2LjYgMTgtMTYuNSA0LjMtMC4xIDguNiAwLjMgMTIuOCAxLjEgMTAgMS4yIDIwIDIuOSAyOS44IDUuMiA2LjEgMS42IDEyLjIgMy44IDE4LjMgNS41IDEwLjIgMyAyMSAzLjkgMzEuNiAyLjkgMTEuMS0yLjYgMjIuNC00LjMgMzMuOC01LjMgNC43IDAuMiA5LjQgMSAxMy44IDIuNCA0LjYgMS4zIDguOSAzLjYgMTIuNCA2LjkgMi41IDIuNyA0LjUgNS44IDUuOCA5LjIgMS45IDUuMSAzLjEgMTAuNCAzLjUgMTUuOCAwLjIgNC44IDAuNiA5LjYgMS4yIDE0LjQgMS43IDcuNyA1LjQgMTQuOSAxMC42IDIwLjkgNS4zIDUuOCAxMSAxMS4yIDE3LjIgMTYgNS45IDUuMiAxMi4xIDEwIDE4LjYgMTQuNCAzLjEgMi4xIDYuMiA0IDkuMSA2LjMgMyAyLjIgNS41IDUgNy40IDguMiAyLjQgNC40IDMuMiA5LjUgMiAxNC40TTI1OS40IDY3Ni4zYzQuOS0xLjkgMTAuMi0yLjQgMTUuNC0xLjQgNS4yIDEgMTAuMSAzLjEgMTQuNCA2LjEgOC4zIDYuMyAxNS41IDE0LjEgMjEuMiAyMi44IDE0LjEgMTkuNCAyNy42IDM5LjIgMzkuOSA1OS44IDEwIDE2LjcgMTkuMSAzMy45IDMwLjYgNDkuNiA3LjUgMTAuMiAxNiAxOS43IDIzLjYgMjkuOSA3LjkgMTAgMTMuOSAyMS40IDE3LjYgMzMuNSA0LjQgMTYuMSAyLjYgMzMuMi00LjkgNDguMS01LjQgMTAuNC0xMy41IDE5LjEtMjMuNCAyNS4xLTEwIDYtMjEuNSA5LTMzLjIgOC43LTE4LjQtMi41LTM2LjItOC4xLTUyLjYtMTYuNi0zNC45LTEzLjktNzIuOC0xOC4zLTEwOC44LTI5LjEtMTEuMS0zLjMtMjEuOS03LjMtMzMuMS0xMC4zLTUtMS4yLTkuOS0yLjctMTQuNy00LjctNC43LTItOC44LTUuNC0xMS41LTkuNy0yLTMuNS0zLTcuNS0yLjktMTEuNSAwLjEtNCAwLjktNy45IDIuMy0xMS41IDIuNy03LjUgNy4xLTE0LjIgMTAtMjEuNiA0LjQtMTIuMiA2LjEtMjUuMyA1LTM4LjItMC42LTEyLjktMi45LTI1LjgtMy42LTM4LjctMC42LTUuOC0wLjQtMTEuNiAwLjYtMTcuMyAxLjUtMTEuNCAxMC40LTIwLjUgMjEuOS0yMi4yIDUuMy0wLjkgMTAuNi0xLjMgMTUuOS0xIDUuMyAwLjMgMTAuNyAwLjMgMTYgMCA1LjMtMC4zIDEwLjYtMS44IDE1LjMtNC4zIDQuMy0yLjYgOC4xLTYuMiAxMS0xMC40IDIuOS00LjIgNS41LTguNSA3LjktMTMgMi40LTQuNSA1LjEtOC43IDguMy0xMi43IDMtNC4xIDcuMS03LjIgMTEuOC05LjQiLz48cGF0aCBmaWxsPSIjRjVCRDBDIiBkPSJNMjU5LjQgNjc2LjRjNC45LTEuOSAxMC4yLTIuNCAxNS40LTEuNCA1LjIgMSAxMC4xIDMuMSAxNC40IDYuMSA4LjMgNi4zIDE1LjUgMTQuMSAyMS4yIDIyLjggMTQuMSAxOS40IDI3LjYgMzkuMiAzOS45IDU5LjggMTAgMTYuNyAxOS4xIDMzLjkgMzAuNiA0OS42IDcuNSAxMC4yIDE2IDE5LjcgMjMuNiAyOS45IDcuOSAxMCAxMy45IDIxLjQgMTcuNiAzMy41IDQuNCAxNi4xIDIuNiAzMy4yLTQuOSA0OC4xLTUuNCAxMC40LTEzLjUgMTkuMS0yMy40IDI1LjEtMTAgNi0yMS41IDktMzMuMiA4LjctMTguNC0yLjUtMzYuMi04LjEtNTIuNi0xNi42LTM0LjktMTMuOS03Mi44LTE4LjMtMTA4LjgtMjkuMS0xMS4xLTMuMy0yMS45LTcuMy0zMy4xLTEwLjMtNS0xLjItOS45LTIuNy0xNC43LTQuNy00LjctMi04LjgtNS40LTExLjUtOS43LTItMy41LTMtNy41LTIuOS0xMS41IDAuMS00IDAuOS03LjkgMi4zLTExLjUgMi43LTcuNSA3LjEtMTQuMiAxMC0yMS42IDQuNC0xMi4yIDYuMS0yNS4zIDUtMzguMi0wLjYtMTIuOS0yLjktMjUuNy0zLjYtMzguNy0wLjYtNS44LTAuNC0xMS42IDAuNi0xNy4zIDEuNS0xMS40IDEwLjQtMjAuNSAyMS45LTIyLjIgNS4zLTAuOSAxMC42LTEuMyAxNS45LTEgNS4zIDAuMyAxMC43IDAuMyAxNiAwIDUuMy0wLjMgMTAuNi0xLjggMTUuMy00LjMgNC4zLTIuNiA4LjEtNi4yIDExLTEwLjQgMi45LTQuMiA1LjUtOC41IDcuOS0xMyAyLjQtNC41IDUuMS04LjcgOC4zLTEyLjcgMy00LjEgNy4xLTcuMyAxMS44LTkuNCIvPjxwYXRoIGZpbGw9IiNGNUJEMEMiIGQ9Ik0yNjcuMSA2ODQuOGM0LjQtMS43IDkuMy0yIDEzLjktMC45czguOSAzLjIgMTIuNiA2LjJjNy4xIDYuMiAxMy4xIDEzLjYgMTcuNiAyMS45IDEyIDE5LjQgMjMuNyAzOSAzNC42IDU5IDcuOSAxNS4zIDE2LjggMzAuMSAyNi42IDQ0LjIgNi44IDkuMiAxNC42IDE3LjYgMjEuNiAyNi42IDcuMyA4LjkgMTIuOCAxOSAxNi4yIDI5LjkgNCAxNC4zIDIuMyAyOS42LTQuNSA0Mi45LTUgOS40LTEyLjUgMTcuMy0yMS43IDIyLjYtOS4yIDUuNC0xOS44IDgtMzAuNCA3LjUtMTYuNy0yLjYtMzIuOS03LjYtNDguMi0xNC45LTMwLjQtMTEuMS02My41LTEyLjUtOTQuNy0yMS4yLTExLjItMy0yMi4xLTcuMS0zMy40LTkuOS01LTEuMS0xMC0yLjUtMTQuOC00LjMtNC44LTEuOC05LTUuMi0xMS44LTkuNS0xLjgtMy40LTIuNy03LjItMi41LTExIDAuMi0zLjggMS03LjYgMi40LTExLjIgMi43LTcuMSA3LTEzLjYgOS43LTIwLjcgMy44LTExIDUuMS0yMi42IDMuOS0zNC4yLTAuOC0xMS41LTIuOS0yMi45LTMuNS0zNC41LTAuNC01LjEtMC4yLTEwLjMgMC43LTE1LjQgMC45LTUuMSAzLjMtOS44IDYuOS0xMy42IDQuMi0zLjggOS40LTYuMyAxNS03IDUuNi0wLjcgMTEuMi0wLjcgMTYuNyAwIDUuNiAwLjcgMTEuMiAwLjkgMTYuOCAwLjggMTEgMCAyMS02LjQgMjUuNy0xNi40IDIuMy00LjUgNC4zLTkuMiA1LjktMTMuOSAxLjctNC44IDQtOS4zIDYuNy0xMy42IDIuOC00LjMgNi44LTcuNyAxMS41LTkuNyIvPjwvc3ZnPg==;" vertex="1" parent="1">
          <mxGeometry x="730" y="545" width="55" height="55" as="geometry" />
        </mxCell>
        <mxCell id="yeecXxTorHFTwbyr2bbs-37" value="Container" style="rounded=0;whiteSpace=wrap;html=1;" vertex="1" parent="1">
          <mxGeometry x="140" y="480" width="100" height="40" as="geometry" />
        </mxCell>
        <mxCell id="yeecXxTorHFTwbyr2bbs-49" style="edgeStyle=orthogonalEdgeStyle;rounded=0;orthogonalLoop=1;jettySize=auto;html=1;exitX=0.5;exitY=1;exitDx=0;exitDy=0;entryX=0.5;entryY=0;entryDx=0;entryDy=0;" edge="1" parent="1" source="yeecXxTorHFTwbyr2bbs-40" target="yeecXxTorHFTwbyr2bbs-44">
          <mxGeometry relative="1" as="geometry" />
        </mxCell>
        <mxCell id="yeecXxTorHFTwbyr2bbs-40" value="shim service runc" style="rounded=0;whiteSpace=wrap;html=1;" vertex="1" parent="1">
          <mxGeometry x="130" y="325" width="110" height="40" as="geometry" />
        </mxCell>
        <mxCell id="yeecXxTorHFTwbyr2bbs-51" style="edgeStyle=orthogonalEdgeStyle;rounded=0;orthogonalLoop=1;jettySize=auto;html=1;exitX=0.5;exitY=1;exitDx=0;exitDy=0;" edge="1" parent="1" source="yeecXxTorHFTwbyr2bbs-41" target="yeecXxTorHFTwbyr2bbs-48">
          <mxGeometry relative="1" as="geometry" />
        </mxCell>
        <mxCell id="yeecXxTorHFTwbyr2bbs-41" value="shim service other" style="rounded=0;whiteSpace=wrap;html=1;" vertex="1" parent="1">
          <mxGeometry x="382.5" y="325" width="110" height="40" as="geometry" />
        </mxCell>
        <mxCell id="yeecXxTorHFTwbyr2bbs-50" style="edgeStyle=orthogonalEdgeStyle;rounded=0;orthogonalLoop=1;jettySize=auto;html=1;exitX=0.5;exitY=1;exitDx=0;exitDy=0;" edge="1" parent="1" source="yeecXxTorHFTwbyr2bbs-42" target="yeecXxTorHFTwbyr2bbs-47">
          <mxGeometry relative="1" as="geometry" />
        </mxCell>
        <mxCell id="yeecXxTorHFTwbyr2bbs-42" value="shim service kata" style="rounded=0;whiteSpace=wrap;html=1;" vertex="1" parent="1">
          <mxGeometry x="250" y="325" width="110" height="40" as="geometry" />
        </mxCell>
        <mxCell id="yeecXxTorHFTwbyr2bbs-52" style="edgeStyle=orthogonalEdgeStyle;rounded=0;orthogonalLoop=1;jettySize=auto;html=1;exitX=0.5;exitY=1;exitDx=0;exitDy=0;" edge="1" parent="1" source="yeecXxTorHFTwbyr2bbs-44" target="yeecXxTorHFTwbyr2bbs-37">
          <mxGeometry relative="1" as="geometry" />
        </mxCell>
        <mxCell id="yeecXxTorHFTwbyr2bbs-44" value="runc" style="rounded=0;whiteSpace=wrap;html=1;" vertex="1" parent="1">
          <mxGeometry x="200" y="405" width="80" height="40" as="geometry" />
        </mxCell>
        <mxCell id="yeecXxTorHFTwbyr2bbs-53" style="edgeStyle=orthogonalEdgeStyle;rounded=0;orthogonalLoop=1;jettySize=auto;html=1;exitX=0.5;exitY=1;exitDx=0;exitDy=0;entryX=0.5;entryY=0;entryDx=0;entryDy=0;" edge="1" parent="1" source="yeecXxTorHFTwbyr2bbs-47" target="yeecXxTorHFTwbyr2bbs-39">
          <mxGeometry relative="1" as="geometry" />
        </mxCell>
        <mxCell id="yeecXxTorHFTwbyr2bbs-47" value="kata" style="rounded=0;whiteSpace=wrap;html=1;" vertex="1" parent="1">
          <mxGeometry x="287.5" y="405" width="80" height="40" as="geometry" />
        </mxCell>
        <mxCell id="yeecXxTorHFTwbyr2bbs-54" style="edgeStyle=orthogonalEdgeStyle;rounded=0;orthogonalLoop=1;jettySize=auto;html=1;exitX=0.5;exitY=1;exitDx=0;exitDy=0;" edge="1" parent="1" source="yeecXxTorHFTwbyr2bbs-48" target="yeecXxTorHFTwbyr2bbs-38">
          <mxGeometry relative="1" as="geometry" />
        </mxCell>
        <mxCell id="yeecXxTorHFTwbyr2bbs-48" value="other" style="rounded=0;whiteSpace=wrap;html=1;" vertex="1" parent="1">
          <mxGeometry x="390" y="405" width="80" height="40" as="geometry" />
        </mxCell>
        <mxCell id="yeecXxTorHFTwbyr2bbs-55" value="containerd-grpc-api" style="rounded=0;whiteSpace=wrap;html=1;verticalAlign=top;align=left;" vertex="1" parent="1">
          <mxGeometry x="60" y="175" width="340" height="60" as="geometry" />
        </mxCell>
        <mxCell id="yeecXxTorHFTwbyr2bbs-61" style="edgeStyle=orthogonalEdgeStyle;rounded=0;orthogonalLoop=1;jettySize=auto;html=1;exitX=0.25;exitY=1;exitDx=0;exitDy=0;" edge="1" parent="1" source="yeecXxTorHFTwbyr2bbs-56" target="yeecXxTorHFTwbyr2bbs-60">
          <mxGeometry relative="1" as="geometry" />
        </mxCell>
        <mxCell id="yeecXxTorHFTwbyr2bbs-56" value="task api" style="rounded=0;whiteSpace=wrap;html=1;" vertex="1" parent="1">
          <mxGeometry x="150" y="195" width="80" height="30" as="geometry" />
        </mxCell>
        <mxCell id="yeecXxTorHFTwbyr2bbs-57" value="" style="rounded=0;whiteSpace=wrap;html=1;" vertex="1" parent="1">
          <mxGeometry x="125" y="100" width="375" height="60" as="geometry" />
        </mxCell>
        <mxCell id="yeecXxTorHFTwbyr2bbs-59" style="edgeStyle=orthogonalEdgeStyle;rounded=0;orthogonalLoop=1;jettySize=auto;html=1;exitX=0.5;exitY=1;exitDx=0;exitDy=0;entryX=0.25;entryY=0;entryDx=0;entryDy=0;" edge="1" parent="1" source="yeecXxTorHFTwbyr2bbs-58" target="yeecXxTorHFTwbyr2bbs-56">
          <mxGeometry relative="1" as="geometry" />
        </mxCell>
        <mxCell id="yeecXxTorHFTwbyr2bbs-58" value="ctr" style="rounded=0;whiteSpace=wrap;html=1;" vertex="1" parent="1">
          <mxGeometry x="150" y="120" width="100" height="30" as="geometry" />
        </mxCell>
        <mxCell id="yeecXxTorHFTwbyr2bbs-60" value="task service" style="rounded=0;whiteSpace=wrap;html=1;" vertex="1" parent="1">
          <mxGeometry x="130" y="260" width="100" height="35" as="geometry" />
        </mxCell>
        <mxCell id="yeecXxTorHFTwbyr2bbs-62" value="runtime v2" style="rounded=0;whiteSpace=wrap;html=1;verticalAlign=top;align=left;" vertex="1" parent="1">
          <mxGeometry x="440" y="190" width="220" height="160" as="geometry" />
        </mxCell>
        <mxCell id="yeecXxTorHFTwbyr2bbs-63" value="task" style="rounded=0;whiteSpace=wrap;html=1;" vertex="1" parent="1">
          <mxGeometry x="470" y="249" width="80" height="42" as="geometry" />
        </mxCell>
        <mxCell id="yeecXxTorHFTwbyr2bbs-64" value="task manager" style="rounded=0;whiteSpace=wrap;html=1;" vertex="1" parent="1">
          <mxGeometry x="560" y="250" width="120" height="60" as="geometry" />
        </mxCell>
      </root>
    </mxGraphModel>
  </diagram>
  <diagram id="07r4QxFmw--cu2choAbs" name="Page-5">
    <mxGraphModel dx="2751" dy="1296" grid="1" gridSize="10" guides="1" tooltips="1" connect="1" arrows="1" fold="1" page="1" pageScale="1" pageWidth="850" pageHeight="1100" math="0" shadow="0">
      <root>
        <mxCell id="0" />
        <mxCell id="1" parent="0" />
        <mxCell id="VyMLH-zKxmrcFW3dX3mF-15" value="&amp;lt;&amp;lt;singleExecution&amp;gt;&amp;gt;" style="html=1;align=left;verticalAlign=top;rounded=1;absoluteArcSize=1;arcSize=50;dashed=0;spacingTop=10;spacingRight=30;whiteSpace=wrap;" vertex="1" parent="1">
          <mxGeometry x="-150" y="640" width="1260" height="700" as="geometry" />
        </mxCell>
        <mxCell id="VyMLH-zKxmrcFW3dX3mF-14" value="&amp;lt;&amp;lt;singleExecution&amp;gt;&amp;gt;" style="html=1;align=left;verticalAlign=top;rounded=1;absoluteArcSize=1;arcSize=50;dashed=0;spacingTop=10;spacingRight=30;whiteSpace=wrap;" vertex="1" parent="1">
          <mxGeometry x="-120" y="190" width="1120" height="430" as="geometry" />
        </mxCell>
        <mxCell id="A3agfBNbZzSJoAoyG01x-1" value="containerd" style="shape=umlLifeline;perimeter=lifelinePerimeter;whiteSpace=wrap;html=1;container=1;dropTarget=0;collapsible=0;recursiveResize=0;outlineConnect=0;portConstraint=eastwest;newEdgeStyle={&quot;edgeStyle&quot;:&quot;elbowEdgeStyle&quot;,&quot;elbow&quot;:&quot;vertical&quot;,&quot;curved&quot;:0,&quot;rounded&quot;:0};" vertex="1" parent="1">
          <mxGeometry x="280" y="130" width="100" height="1080" as="geometry" />
        </mxCell>
        <mxCell id="A3agfBNbZzSJoAoyG01x-3" value="ctr" style="shape=umlLifeline;perimeter=lifelinePerimeter;whiteSpace=wrap;html=1;container=1;dropTarget=0;collapsible=0;recursiveResize=0;outlineConnect=0;portConstraint=eastwest;newEdgeStyle={&quot;edgeStyle&quot;:&quot;elbowEdgeStyle&quot;,&quot;elbow&quot;:&quot;vertical&quot;,&quot;curved&quot;:0,&quot;rounded&quot;:0};" vertex="1" parent="1">
          <mxGeometry x="50" y="130" width="100" height="1050" as="geometry" />
        </mxCell>
        <mxCell id="A3agfBNbZzSJoAoyG01x-5" value="shim" style="shape=umlLifeline;perimeter=lifelinePerimeter;whiteSpace=wrap;html=1;container=1;dropTarget=0;collapsible=0;recursiveResize=0;outlineConnect=0;portConstraint=eastwest;newEdgeStyle={&quot;edgeStyle&quot;:&quot;elbowEdgeStyle&quot;,&quot;elbow&quot;:&quot;vertical&quot;,&quot;curved&quot;:0,&quot;rounded&quot;:0};" vertex="1" parent="1">
          <mxGeometry x="690" y="120" width="100" height="1090" as="geometry" />
        </mxCell>
        <mxCell id="A3agfBNbZzSJoAoyG01x-7" style="edgeStyle=orthogonalEdgeStyle;rounded=0;orthogonalLoop=1;jettySize=auto;html=1;curved=0;" edge="1" parent="1" source="A3agfBNbZzSJoAoyG01x-3" target="A3agfBNbZzSJoAoyG01x-1">
          <mxGeometry relative="1" as="geometry">
            <mxPoint x="55" y="235" as="sourcePoint" />
            <mxPoint x="325" y="225" as="targetPoint" />
            <Array as="points">
              <mxPoint x="260" y="236" />
              <mxPoint x="260" y="236" />
            </Array>
          </mxGeometry>
        </mxCell>
        <mxCell id="A3agfBNbZzSJoAoyG01x-8" value="create container" style="edgeLabel;html=1;align=center;verticalAlign=middle;resizable=0;points=[];" vertex="1" connectable="0" parent="A3agfBNbZzSJoAoyG01x-7">
          <mxGeometry x="-0.3407" relative="1" as="geometry">
            <mxPoint x="49" as="offset" />
          </mxGeometry>
        </mxCell>
        <mxCell id="A3agfBNbZzSJoAoyG01x-9" value="" style="endArrow=classic;html=1;rounded=0;" edge="1" parent="1">
          <mxGeometry width="50" height="50" relative="1" as="geometry">
            <mxPoint x="329.49999999999955" y="260" as="sourcePoint" />
            <mxPoint x="99.59090909090901" y="260" as="targetPoint" />
            <Array as="points">
              <mxPoint x="240" y="260" />
            </Array>
          </mxGeometry>
        </mxCell>
        <mxCell id="A3agfBNbZzSJoAoyG01x-10" value="container ID" style="edgeLabel;html=1;align=center;verticalAlign=middle;resizable=0;points=[];" vertex="1" connectable="0" parent="A3agfBNbZzSJoAoyG01x-9">
          <mxGeometry x="0.2741" y="1" relative="1" as="geometry">
            <mxPoint as="offset" />
          </mxGeometry>
        </mxCell>
        <mxCell id="A3agfBNbZzSJoAoyG01x-11" value="" style="endArrow=classic;html=1;rounded=0;" edge="1" parent="1" target="A3agfBNbZzSJoAoyG01x-1">
          <mxGeometry width="50" height="50" relative="1" as="geometry">
            <mxPoint x="100" y="290" as="sourcePoint" />
            <mxPoint x="325" y="290" as="targetPoint" />
          </mxGeometry>
        </mxCell>
        <mxCell id="A3agfBNbZzSJoAoyG01x-12" value="create task" style="edgeLabel;html=1;align=center;verticalAlign=middle;resizable=0;points=[];" vertex="1" connectable="0" parent="A3agfBNbZzSJoAoyG01x-11">
          <mxGeometry x="-0.2296" y="3" relative="1" as="geometry">
            <mxPoint as="offset" />
          </mxGeometry>
        </mxCell>
        <mxCell id="A3agfBNbZzSJoAoyG01x-13" value="" style="endArrow=classic;html=1;rounded=0;" edge="1" parent="1" source="A3agfBNbZzSJoAoyG01x-1" target="A3agfBNbZzSJoAoyG01x-5">
          <mxGeometry width="50" height="50" relative="1" as="geometry">
            <mxPoint x="335" y="314.55" as="sourcePoint" />
            <mxPoint x="869.5" y="314.55" as="targetPoint" />
            <Array as="points">
              <mxPoint x="340" y="314.55" />
              <mxPoint x="460" y="314.55" />
            </Array>
          </mxGeometry>
        </mxCell>
        <mxCell id="A3agfBNbZzSJoAoyG01x-14" value="Prepare bundle" style="edgeLabel;html=1;align=center;verticalAlign=middle;resizable=0;points=[];" vertex="1" connectable="0" parent="A3agfBNbZzSJoAoyG01x-13">
          <mxGeometry x="-0.2444" y="2" relative="1" as="geometry">
            <mxPoint as="offset" />
          </mxGeometry>
        </mxCell>
        <mxCell id="DGkVDG53H8dpzxX-mhxn-1" value="" style="endArrow=classic;html=1;rounded=0;" edge="1" parent="1">
          <mxGeometry width="50" height="50" relative="1" as="geometry">
            <mxPoint x="329.590909090909" y="340" as="sourcePoint" />
            <mxPoint x="739.5" y="340" as="targetPoint" />
          </mxGeometry>
        </mxCell>
        <mxCell id="DGkVDG53H8dpzxX-mhxn-3" value="execute binary: containerd-shim-runc-v2-start" style="edgeLabel;html=1;align=center;verticalAlign=middle;resizable=0;points=[];" vertex="1" connectable="0" parent="DGkVDG53H8dpzxX-mhxn-1">
          <mxGeometry x="-0.1407" relative="1" as="geometry">
            <mxPoint x="19" as="offset" />
          </mxGeometry>
        </mxCell>
        <mxCell id="DGkVDG53H8dpzxX-mhxn-4" value="" style="endArrow=classic;html=1;rounded=0;edgeStyle=orthogonalEdgeStyle;curved=1;" edge="1" parent="1" target="A3agfBNbZzSJoAoyG01x-5">
          <mxGeometry width="50" height="50" relative="1" as="geometry">
            <mxPoint x="740" y="420" as="sourcePoint" />
            <mxPoint x="740" y="500" as="targetPoint" />
            <Array as="points">
              <mxPoint x="811" y="420" />
              <mxPoint x="811" y="460" />
            </Array>
          </mxGeometry>
        </mxCell>
        <mxCell id="DGkVDG53H8dpzxX-mhxn-5" value="start TTRPC server" style="edgeLabel;html=1;align=center;verticalAlign=middle;resizable=0;points=[];" vertex="1" connectable="0" parent="DGkVDG53H8dpzxX-mhxn-4">
          <mxGeometry x="-0.5747" y="-7" relative="1" as="geometry">
            <mxPoint x="23" y="33" as="offset" />
          </mxGeometry>
        </mxCell>
        <mxCell id="DGkVDG53H8dpzxX-mhxn-6" value="" style="endArrow=classic;html=1;rounded=0;" edge="1" parent="1" target="A3agfBNbZzSJoAoyG01x-1">
          <mxGeometry width="50" height="50" relative="1" as="geometry">
            <mxPoint x="740" y="370" as="sourcePoint" />
            <mxPoint x="330" y="400" as="targetPoint" />
            <Array as="points">
              <mxPoint x="740" y="370" />
              <mxPoint x="700" y="370" />
            </Array>
          </mxGeometry>
        </mxCell>
        <mxCell id="DGkVDG53H8dpzxX-mhxn-7" value="Respond with address: Unix:///run/containerd/s/&amp;lt;shim socket&amp;gt;" style="edgeLabel;html=1;align=center;verticalAlign=middle;resizable=0;points=[];" vertex="1" connectable="0" parent="DGkVDG53H8dpzxX-mhxn-6">
          <mxGeometry x="0.28" y="1" relative="1" as="geometry">
            <mxPoint x="43" as="offset" />
          </mxGeometry>
        </mxCell>
        <mxCell id="DGkVDG53H8dpzxX-mhxn-8" value="" style="endArrow=classic;html=1;rounded=0;" edge="1" parent="1" target="A3agfBNbZzSJoAoyG01x-5">
          <mxGeometry width="50" height="50" relative="1" as="geometry">
            <mxPoint x="320" y="404.55" as="sourcePoint" />
            <mxPoint x="859.5" y="404.55" as="targetPoint" />
          </mxGeometry>
        </mxCell>
        <mxCell id="DGkVDG53H8dpzxX-mhxn-9" value="Create TTRPC client" style="edgeLabel;html=1;align=center;verticalAlign=middle;resizable=0;points=[];" vertex="1" connectable="0" parent="DGkVDG53H8dpzxX-mhxn-8">
          <mxGeometry x="-0.2215" y="2" relative="1" as="geometry">
            <mxPoint as="offset" />
          </mxGeometry>
        </mxCell>
        <mxCell id="DGkVDG53H8dpzxX-mhxn-10" value="schedule new task" style="rounded=0;whiteSpace=wrap;html=1;" vertex="1" parent="1">
          <mxGeometry x="360" y="425" width="120" height="30" as="geometry" />
        </mxCell>
        <mxCell id="DGkVDG53H8dpzxX-mhxn-11" value="" style="endArrow=classic;html=1;rounded=0;" edge="1" parent="1">
          <mxGeometry width="50" height="50" relative="1" as="geometry">
            <mxPoint x="329.590909090909" y="480" as="sourcePoint" />
            <mxPoint x="739.5" y="480" as="targetPoint" />
          </mxGeometry>
        </mxCell>
        <mxCell id="DGkVDG53H8dpzxX-mhxn-12" value="TaskService CreateTaskRequest" style="edgeLabel;html=1;align=center;verticalAlign=middle;resizable=0;points=[];" vertex="1" connectable="0" parent="DGkVDG53H8dpzxX-mhxn-11">
          <mxGeometry x="-0.1843" y="2" relative="1" as="geometry">
            <mxPoint as="offset" />
          </mxGeometry>
        </mxCell>
        <mxCell id="DGkVDG53H8dpzxX-mhxn-13" value="" style="endArrow=classic;html=1;rounded=0;" edge="1" parent="1" source="A3agfBNbZzSJoAoyG01x-5">
          <mxGeometry width="50" height="50" relative="1" as="geometry">
            <mxPoint x="869.5" y="520" as="sourcePoint" />
            <mxPoint x="329.590909090909" y="520" as="targetPoint" />
          </mxGeometry>
        </mxCell>
        <mxCell id="DGkVDG53H8dpzxX-mhxn-14" value="Task ID" style="edgeLabel;html=1;align=center;verticalAlign=middle;resizable=0;points=[];" vertex="1" connectable="0" parent="DGkVDG53H8dpzxX-mhxn-13">
          <mxGeometry x="0.1963" y="1" relative="1" as="geometry">
            <mxPoint as="offset" />
          </mxGeometry>
        </mxCell>
        <mxCell id="DGkVDG53H8dpzxX-mhxn-15" value="" style="endArrow=classic;html=1;rounded=0;" edge="1" parent="1" source="A3agfBNbZzSJoAoyG01x-1" target="A3agfBNbZzSJoAoyG01x-3">
          <mxGeometry width="50" height="50" relative="1" as="geometry">
            <mxPoint x="579.5" y="600" as="sourcePoint" />
            <mxPoint x="50" y="600" as="targetPoint" />
            <Array as="points">
              <mxPoint x="250" y="540" />
            </Array>
          </mxGeometry>
        </mxCell>
        <mxCell id="DGkVDG53H8dpzxX-mhxn-16" value="Task ID" style="edgeLabel;html=1;align=center;verticalAlign=middle;resizable=0;points=[];" vertex="1" connectable="0" parent="DGkVDG53H8dpzxX-mhxn-15">
          <mxGeometry x="0.3158" y="-1" relative="1" as="geometry">
            <mxPoint as="offset" />
          </mxGeometry>
        </mxCell>
        <mxCell id="YejPjy_8OkOwiRyXM1lR-1" value="" style="endArrow=classic;html=1;rounded=0;" edge="1" parent="1" source="A3agfBNbZzSJoAoyG01x-3" target="A3agfBNbZzSJoAoyG01x-1">
          <mxGeometry width="50" height="50" relative="1" as="geometry">
            <mxPoint x="100" y="680" as="sourcePoint" />
            <mxPoint x="380" y="690" as="targetPoint" />
            <Array as="points">
              <mxPoint x="240" y="690" />
            </Array>
          </mxGeometry>
        </mxCell>
        <mxCell id="YejPjy_8OkOwiRyXM1lR-2" value="Start task" style="edgeLabel;html=1;align=center;verticalAlign=middle;resizable=0;points=[];" vertex="1" connectable="0" parent="YejPjy_8OkOwiRyXM1lR-1">
          <mxGeometry x="-0.4132" y="-1" relative="1" as="geometry">
            <mxPoint as="offset" />
          </mxGeometry>
        </mxCell>
        <mxCell id="VyMLH-zKxmrcFW3dX3mF-1" value="" style="endArrow=classic;html=1;rounded=0;" edge="1" parent="1">
          <mxGeometry width="50" height="50" relative="1" as="geometry">
            <mxPoint x="330" y="730" as="sourcePoint" />
            <mxPoint x="740" y="730" as="targetPoint" />
          </mxGeometry>
        </mxCell>
        <mxCell id="VyMLH-zKxmrcFW3dX3mF-2" value="TaskService StartRequest" style="edgeLabel;html=1;align=center;verticalAlign=middle;resizable=0;points=[];" vertex="1" connectable="0" parent="VyMLH-zKxmrcFW3dX3mF-1">
          <mxGeometry x="-0.3617" y="-1" relative="1" as="geometry">
            <mxPoint as="offset" />
          </mxGeometry>
        </mxCell>
        <mxCell id="VyMLH-zKxmrcFW3dX3mF-3" value="" style="endArrow=classic;html=1;rounded=0;" edge="1" parent="1" source="A3agfBNbZzSJoAoyG01x-5">
          <mxGeometry width="50" height="50" relative="1" as="geometry">
            <mxPoint x="870" y="750" as="sourcePoint" />
            <mxPoint x="330" y="760" as="targetPoint" />
          </mxGeometry>
        </mxCell>
        <mxCell id="VyMLH-zKxmrcFW3dX3mF-4" value="OK" style="edgeLabel;html=1;align=center;verticalAlign=middle;resizable=0;points=[];" vertex="1" connectable="0" parent="VyMLH-zKxmrcFW3dX3mF-3">
          <mxGeometry x="-0.0039" y="-3" relative="1" as="geometry">
            <mxPoint as="offset" />
          </mxGeometry>
        </mxCell>
        <mxCell id="VyMLH-zKxmrcFW3dX3mF-5" value="" style="endArrow=classic;html=1;rounded=0;" edge="1" parent="1" target="A3agfBNbZzSJoAoyG01x-1">
          <mxGeometry width="50" height="50" relative="1" as="geometry">
            <mxPoint x="100" y="810" as="sourcePoint" />
            <mxPoint x="320" y="810" as="targetPoint" />
          </mxGeometry>
        </mxCell>
        <mxCell id="VyMLH-zKxmrcFW3dX3mF-6" value="Wait task" style="edgeLabel;html=1;align=center;verticalAlign=middle;resizable=0;points=[];" vertex="1" connectable="0" parent="VyMLH-zKxmrcFW3dX3mF-5">
          <mxGeometry x="-0.3" y="4" relative="1" as="geometry">
            <mxPoint as="offset" />
          </mxGeometry>
        </mxCell>
        <mxCell id="VyMLH-zKxmrcFW3dX3mF-7" value="" style="endArrow=classic;html=1;rounded=0;" edge="1" parent="1" target="A3agfBNbZzSJoAoyG01x-5">
          <mxGeometry width="50" height="50" relative="1" as="geometry">
            <mxPoint x="330" y="830" as="sourcePoint" />
            <mxPoint x="860" y="830" as="targetPoint" />
          </mxGeometry>
        </mxCell>
        <mxCell id="VyMLH-zKxmrcFW3dX3mF-8" value="TaskService.WaitRequest" style="edgeLabel;html=1;align=center;verticalAlign=middle;resizable=0;points=[];" vertex="1" connectable="0" parent="VyMLH-zKxmrcFW3dX3mF-7">
          <mxGeometry x="-0.3617" y="-1" relative="1" as="geometry">
            <mxPoint as="offset" />
          </mxGeometry>
        </mxCell>
        <mxCell id="VyMLH-zKxmrcFW3dX3mF-9" value="" style="endArrow=classic;html=1;rounded=0;" edge="1" parent="1">
          <mxGeometry width="50" height="50" relative="1" as="geometry">
            <mxPoint x="739.5" y="879.9999999999998" as="sourcePoint" />
            <mxPoint x="329.590909090909" y="879.9999999999998" as="targetPoint" />
          </mxGeometry>
        </mxCell>
        <mxCell id="VyMLH-zKxmrcFW3dX3mF-10" value="Exit status" style="edgeLabel;html=1;align=center;verticalAlign=middle;resizable=0;points=[];" vertex="1" connectable="0" parent="VyMLH-zKxmrcFW3dX3mF-9">
          <mxGeometry x="-0.0039" y="-3" relative="1" as="geometry">
            <mxPoint as="offset" />
          </mxGeometry>
        </mxCell>
        <mxCell id="VyMLH-zKxmrcFW3dX3mF-12" value="" style="endArrow=classic;html=1;rounded=0;" edge="1" parent="1">
          <mxGeometry width="50" height="50" relative="1" as="geometry">
            <mxPoint x="329.49999999999955" y="959.9999999999998" as="sourcePoint" />
            <mxPoint x="99.59090909090901" y="959.9999999999998" as="targetPoint" />
          </mxGeometry>
        </mxCell>
        <mxCell id="VyMLH-zKxmrcFW3dX3mF-13" value="OK" style="edgeLabel;html=1;align=center;verticalAlign=middle;resizable=0;points=[];" vertex="1" connectable="0" parent="VyMLH-zKxmrcFW3dX3mF-12">
          <mxGeometry x="0.0519" y="1" relative="1" as="geometry">
            <mxPoint as="offset" />
          </mxGeometry>
        </mxCell>
        <mxCell id="VyMLH-zKxmrcFW3dX3mF-16" value="runc" style="shape=umlLifeline;perimeter=lifelinePerimeter;whiteSpace=wrap;html=1;container=1;dropTarget=0;collapsible=0;recursiveResize=0;outlineConnect=0;portConstraint=eastwest;newEdgeStyle={&quot;edgeStyle&quot;:&quot;elbowEdgeStyle&quot;,&quot;elbow&quot;:&quot;vertical&quot;,&quot;curved&quot;:0,&quot;rounded&quot;:0};" vertex="1" parent="1">
          <mxGeometry x="1160" y="150" width="100" height="460" as="geometry" />
        </mxCell>
        <mxCell id="VyMLH-zKxmrcFW3dX3mF-17" value="" style="html=1;points=[[0,0,0,0,5],[0,1,0,0,-5],[1,0,0,0,5],[1,1,0,0,-5]];perimeter=orthogonalPerimeter;outlineConnect=0;targetShapes=umlLifeline;portConstraint=eastwest;newEdgeStyle={&quot;curved&quot;:0,&quot;rounded&quot;:0};" vertex="1" parent="VyMLH-zKxmrcFW3dX3mF-16">
          <mxGeometry x="45" y="90" width="10" height="290" as="geometry" />
        </mxCell>
      </root>
    </mxGraphModel>
  </diagram>
  <diagram id="B5s_h9b21sXHDtg_t4NX" name="Page-6">
    <mxGraphModel dx="1114" dy="495" grid="1" gridSize="10" guides="1" tooltips="1" connect="1" arrows="1" fold="1" page="1" pageScale="1" pageWidth="850" pageHeight="1100" math="0" shadow="0">
      <root>
        <mxCell id="0" />
        <mxCell id="1" parent="0" />
        <mxCell id="ArG6QnINRBymDxjNr3dg-1" value="containerd" style="shape=umlLifeline;perimeter=lifelinePerimeter;whiteSpace=wrap;html=1;container=1;dropTarget=0;collapsible=0;recursiveResize=0;outlineConnect=0;portConstraint=eastwest;newEdgeStyle={&quot;edgeStyle&quot;:&quot;elbowEdgeStyle&quot;,&quot;elbow&quot;:&quot;vertical&quot;,&quot;curved&quot;:0,&quot;rounded&quot;:0};" vertex="1" parent="1">
          <mxGeometry x="280" y="130" width="100" height="530" as="geometry" />
        </mxCell>
        <mxCell id="ArG6QnINRBymDxjNr3dg-2" value="" style="html=1;points=[[0,0,0,0,5],[0,1,0,0,-5],[1,0,0,0,5],[1,1,0,0,-5]];perimeter=orthogonalPerimeter;outlineConnect=0;targetShapes=umlLifeline;portConstraint=eastwest;newEdgeStyle={&quot;curved&quot;:0,&quot;rounded&quot;:0};fillColor=#808080;" vertex="1" parent="ArG6QnINRBymDxjNr3dg-1">
          <mxGeometry x="45" y="90" width="10" height="160" as="geometry" />
        </mxCell>
        <mxCell id="ArG6QnINRBymDxjNr3dg-3" value="ctr" style="shape=umlLifeline;perimeter=lifelinePerimeter;whiteSpace=wrap;html=1;container=1;dropTarget=0;collapsible=0;recursiveResize=0;outlineConnect=0;portConstraint=eastwest;newEdgeStyle={&quot;edgeStyle&quot;:&quot;elbowEdgeStyle&quot;,&quot;elbow&quot;:&quot;vertical&quot;,&quot;curved&quot;:0,&quot;rounded&quot;:0};" vertex="1" parent="1">
          <mxGeometry y="130" width="100" height="300" as="geometry" />
        </mxCell>
        <mxCell id="ArG6QnINRBymDxjNr3dg-4" value="" style="html=1;points=[[0,0,0,0,5],[0,1,0,0,-5],[1,0,0,0,5],[1,1,0,0,-5]];perimeter=orthogonalPerimeter;outlineConnect=0;targetShapes=umlLifeline;portConstraint=eastwest;newEdgeStyle={&quot;curved&quot;:0,&quot;rounded&quot;:0};" vertex="1" parent="ArG6QnINRBymDxjNr3dg-3">
          <mxGeometry x="45" y="90" width="10" height="120" as="geometry" />
        </mxCell>
        <mxCell id="ArG6QnINRBymDxjNr3dg-5" value="shim" style="shape=umlLifeline;perimeter=lifelinePerimeter;whiteSpace=wrap;html=1;container=1;dropTarget=0;collapsible=0;recursiveResize=0;outlineConnect=0;portConstraint=eastwest;newEdgeStyle={&quot;edgeStyle&quot;:&quot;elbowEdgeStyle&quot;,&quot;elbow&quot;:&quot;vertical&quot;,&quot;curved&quot;:0,&quot;rounded&quot;:0};" vertex="1" parent="1">
          <mxGeometry x="820" y="100" width="100" height="460" as="geometry" />
        </mxCell>
        <mxCell id="ArG6QnINRBymDxjNr3dg-6" value="" style="html=1;points=[[0,0,0,0,5],[0,1,0,0,-5],[1,0,0,0,5],[1,1,0,0,-5]];perimeter=orthogonalPerimeter;outlineConnect=0;targetShapes=umlLifeline;portConstraint=eastwest;newEdgeStyle={&quot;curved&quot;:0,&quot;rounded&quot;:0};" vertex="1" parent="ArG6QnINRBymDxjNr3dg-5">
          <mxGeometry x="45" y="90" width="10" height="290" as="geometry" />
        </mxCell>
        <mxCell id="ArG6QnINRBymDxjNr3dg-7" value="" style="endArrow=classic;html=1;rounded=0;" edge="1" parent="1" target="ArG6QnINRBymDxjNr3dg-1">
          <mxGeometry width="50" height="50" relative="1" as="geometry">
            <mxPoint x="50" y="280" as="sourcePoint" />
            <mxPoint x="100" y="230" as="targetPoint" />
          </mxGeometry>
        </mxCell>
        <mxCell id="ArG6QnINRBymDxjNr3dg-8" value="Start task" style="edgeLabel;html=1;align=center;verticalAlign=middle;resizable=0;points=[];" vertex="1" connectable="0" parent="ArG6QnINRBymDxjNr3dg-7">
          <mxGeometry x="-0.4132" y="-1" relative="1" as="geometry">
            <mxPoint as="offset" />
          </mxGeometry>
        </mxCell>
        <mxCell id="ArG6QnINRBymDxjNr3dg-9" value="" style="endArrow=classic;html=1;rounded=0;" edge="1" parent="1" target="ArG6QnINRBymDxjNr3dg-5">
          <mxGeometry width="50" height="50" relative="1" as="geometry">
            <mxPoint x="340" y="340" as="sourcePoint" />
            <mxPoint x="390" y="290" as="targetPoint" />
          </mxGeometry>
        </mxCell>
        <mxCell id="ArG6QnINRBymDxjNr3dg-10" value="TaskService StartRequest" style="edgeLabel;html=1;align=center;verticalAlign=middle;resizable=0;points=[];" vertex="1" connectable="0" parent="ArG6QnINRBymDxjNr3dg-9">
          <mxGeometry x="-0.3617" y="-1" relative="1" as="geometry">
            <mxPoint as="offset" />
          </mxGeometry>
        </mxCell>
      </root>
    </mxGraphModel>
  </diagram>
</mxfile>
